<svg width="552" height="500" viewBox="0 0 552 500" fill="none" xmlns="http://www.w3.org/2000/svg">
<path d="M552 382.4H0V382.65H552V382.4Z" fill="#EBEBEB"/>
<path d="M261.648 337.8H48.4771C46.8072 337.797 45.2066 337.195 44.0268 336.124C42.847 335.053 42.1843 333.603 42.1843 332.09V60.66C42.1989 59.156 42.8679 57.718 44.0462 56.6582C45.2244 55.5985 46.8167 55.0026 48.4771 55H261.648C263.32 55 264.924 55.6016 266.106 56.6724C267.288 57.7433 267.952 59.1956 267.952 60.71V332.09C267.952 333.604 267.288 335.057 266.106 336.128C264.924 337.198 263.32 337.8 261.648 337.8ZM48.4771 55.2C46.8804 55.2026 45.35 55.7791 44.222 56.8027C43.0939 57.8264 42.4603 59.2136 42.4603 60.66V332.09C42.4603 333.536 43.0939 334.924 44.222 335.947C45.35 336.971 46.8804 337.547 48.4771 337.55H261.648C263.246 337.547 264.778 336.971 265.908 335.948C267.037 334.924 267.673 333.537 267.676 332.09V60.66C267.673 59.2127 267.037 57.8255 265.908 56.8021C264.778 55.7787 263.246 55.2026 261.648 55.2H48.4771Z" fill="#EBEBEB"/>
<path d="M500.454 337.8H287.271C285.6 337.797 283.999 337.195 282.817 336.125C281.635 335.054 280.97 333.604 280.967 332.09V60.66C280.985 59.1551 281.656 57.7171 282.836 56.6576C284.016 55.5981 285.61 55.0025 287.271 55H500.454C502.112 55.0052 503.702 55.6022 504.878 56.6617C506.053 57.7212 506.721 59.1578 506.735 60.66V332.09C506.735 333.601 506.074 335.05 504.897 336.121C503.719 337.191 502.122 337.795 500.454 337.8ZM287.271 55.2C285.674 55.2026 284.142 55.7787 283.012 56.8021C281.882 57.8255 281.246 59.2127 281.243 60.66V332.09C281.246 333.537 281.882 334.924 283.012 335.948C284.142 336.971 285.674 337.547 287.271 337.55H500.454C502.051 337.547 503.583 336.971 504.713 335.948C505.843 334.924 506.479 333.537 506.482 332.09V60.66C506.479 59.2127 505.843 57.8255 504.713 56.8021C503.583 55.7787 502.051 55.2026 500.454 55.2H287.271Z" fill="#EBEBEB"/>
<path d="M496.69 398.49H467.986V398.74H496.69V398.49Z" fill="#EBEBEB"/>
<path d="M393.057 401.21H343.344V401.46H393.057V401.21Z" fill="#EBEBEB"/>
<path d="M466.882 389.21H399.77V389.46H466.882V389.21Z" fill="#EBEBEB"/>
<path d="M79.1455 390.89H57.9155V391.14H79.1455V390.89Z" fill="#EBEBEB"/>
<path d="M150.022 390.89H88.9817V391.14H150.022V390.89Z" fill="#EBEBEB"/>
<path d="M269.531 395.11H187.316V395.36H269.531V395.11Z" fill="#EBEBEB"/>
<path d="M307.409 85.4001H85.56V229.66H307.409V85.4001Z" fill="#BFE2FE"/>
<path d="M145.043 229.66L183.087 85.39H225.436L187.392 229.66H145.043Z" fill="#BFE2FE"/>
<path d="M227.755 229.66L265.799 85.39H281.244L243.2 229.66H227.755Z" fill="#BFE2FE"/>
<path d="M130.426 229.66L168.481 85.39H174.277L136.233 229.66H130.426Z" fill="#BFE2FE"/>
<path d="M317.951 80.43H74.9826C74.8521 80.43 74.7229 80.4533 74.6024 80.4985C74.4818 80.5437 74.3723 80.61 74.28 80.6936C74.1878 80.7772 74.1146 80.8764 74.0647 80.9856C74.0147 81.0948 73.989 81.2118 73.989 81.33C73.989 81.4477 74.0148 81.5643 74.0649 81.6729C74.1149 81.7815 74.1883 81.8801 74.2807 81.9629C74.3731 82.0457 74.4827 82.111 74.6032 82.1551C74.7237 82.1993 74.8527 82.2213 74.9826 82.22H317.951C318.213 82.22 318.464 82.1266 318.65 81.9599C318.836 81.7933 318.942 81.567 318.945 81.33C318.942 81.0921 318.836 80.8647 318.65 80.6965C318.465 80.5282 318.214 80.4326 317.951 80.43Z" fill="#E0E0E0"/>
<path d="M192.737 229.97H202.198L202.198 85.09H192.737L192.737 229.97Z" fill="#BFE2FE"/>
<path d="M202.198 229.97H203.258L203.258 85.09H202.198L202.198 229.97Z" fill="#E0E0E0"/>
<path d="M84.0264 156.34V158.72H308.944V156.34H84.0264Z" fill="#BFE2FE"/>
<path d="M308.944 228.66V83.9999H84.0264V228.66V231H308.944V228.66ZM86.6539 228.66V86.3899H306.35V228.66H86.6539Z" fill="#BFE2FE"/>
<path d="M308.944 231.04H310.257V84H308.944V231.04Z" fill="#E0E0E0"/>
<path opacity="0.5" d="M269.806 78.25V317.85H325.26L315.092 78.25H269.806Z" fill="#EBEBEB"/>
<path opacity="0.5" d="M231.321 78.25V317.85H286.775L276.607 78.25H231.321Z" fill="#EBEBEB"/>
<path opacity="0.5" d="M103.135 78.25V317.85H69.0216L75.2812 78.25H103.135Z" fill="#EBEBEB"/>
<path opacity="0.5" d="M126.816 78.25V317.85H92.7026L98.9512 78.25H126.816Z" fill="#EBEBEB"/>
<path d="M207.75 382.39H232.225L232.225 230.13H207.75L207.75 382.39Z" fill="#E6E6E6"/>
<path d="M216.373 382.4H207.751V353.46H225.404L216.373 382.4Z" fill="#BFE2FE"/>
<path d="M466.628 382.39H491.103V230.13H466.628V382.39Z" fill="#E6E6E6"/>
<path d="M207.751 374.5L474.146 374.5V230.14L207.751 230.14V374.5Z" fill="#BFE2FE"/>
<path d="M465.524 382.4H474.146V353.46H456.493L465.524 382.4Z" fill="#BFE2FE"/>
<path d="M386.322 242.09V361.51H465.291V242.09H386.322Z" fill="#E6E6E6"/>
<path d="M417.997 246.29H433.619C440.223 246.347 446.614 244.168 451.537 240.18H400.057C404.986 244.173 411.385 246.352 417.997 246.29Z" fill="#BFE2FE"/>
<path d="M301.469 242.09V361.51H380.438V242.09H301.469Z" fill="#E6E6E6"/>
<path d="M332.304 246.29H347.926C354.538 246.352 360.937 244.173 365.866 240.18H314.397C319.318 244.166 325.703 246.345 332.304 246.29Z" fill="#BFE2FE"/>
<path d="M216.616 242.09V361.51H295.585V242.09H216.616Z" fill="#E6E6E6"/>
<path d="M247.484 246.29H263.105C269.717 246.352 276.116 244.173 281.045 240.18H229.544C234.472 244.173 240.871 246.352 247.484 246.29Z" fill="#BFE2FE"/>
<path d="M481.344 202.51H400.211C400.211 202.51 400.95 221.45 424.212 227.7V230.14H457.332V227.7C480.626 221.45 481.344 202.51 481.344 202.51Z" fill="#E6E6E6"/>
<path d="M459.363 82.4399H353.236V185.38H459.363V82.4399Z" fill="#BFE2FE"/>
<path d="M459.374 185.37H462.885V82.43H459.374V185.37Z" fill="#E0E0E0"/>
<path d="M441.423 91.2601H371.186V176.54H441.423V91.2601Z" fill="#BFE2FE"/>
<path d="M276.001 427.56C394.22 427.56 490.055 422.492 490.055 416.24C490.055 409.988 394.22 404.92 276.001 404.92C157.781 404.92 61.946 409.988 61.946 416.24C61.946 422.492 157.781 427.56 276.001 427.56Z" fill="#BFE2FE"/>
<path d="M375.36 302.52H157.607V320.84H375.36V302.52Z" fill="#263238"/>
<path opacity="0.2" d="M375.36 302.52H313.547V320.84H375.36V302.52Z" fill="black"/>
<path d="M170.646 320.84H157.607V419.77H170.646V320.84Z" fill="#263238"/>
<path opacity="0.2" d="M170.635 325.97L157.607 323.41V320.84H170.635V325.97Z" fill="black"/>
<path d="M375.372 320.84H362.334V419.77H375.372V320.84Z" fill="#263238"/>
<path opacity="0.2" d="M375.372 320.84H362.334V419.77H375.372V320.84Z" fill="black"/>
<path d="M326.586 320.84H313.547V419.77H326.586V320.84Z" fill="#263238"/>
<path opacity="0.2" d="M326.586 325.97L313.547 323.41V320.84H326.586V325.97Z" fill="black"/>
<path d="M211.449 320.84H198.41V419.77H211.449V320.84Z" fill="#263238"/>
<path opacity="0.2" d="M211.449 320.84H198.41V419.77H211.449V320.84Z" fill="black"/>
<path d="M353.236 210.52H189.988L175.492 268.02H338.741L353.236 210.52Z" fill="#263238"/>
<path d="M353.236 210.52H356.967L342.472 268.02H338.74L353.236 210.52Z" fill="black"/>
<path d="M376.686 233.52H141.39C134.073 233.52 128.142 238.893 128.142 245.52V290.52C128.142 297.147 134.073 302.52 141.39 302.52H376.686C384.002 302.52 389.934 297.147 389.934 290.52V245.52C389.934 238.893 384.002 233.52 376.686 233.52Z" fill="#2F80ED"/>
<path opacity="0.2" d="M376.697 233.52H346.613C339.296 233.52 333.365 238.893 333.365 245.52V290.52C333.365 297.147 339.296 302.52 346.613 302.52H376.697C384.013 302.52 389.945 297.147 389.945 290.52V245.52C389.945 238.893 384.013 233.52 376.697 233.52Z" fill="black"/>
<path opacity="0.2" d="M323.693 251.35H137.812C137.227 251.35 136.665 251.139 136.251 250.764C135.837 250.389 135.604 249.88 135.604 249.35C135.604 248.82 135.837 248.311 136.251 247.936C136.665 247.561 137.227 247.35 137.812 247.35H323.693C324.278 247.35 324.84 247.561 325.254 247.936C325.668 248.311 325.901 248.82 325.901 249.35C325.901 249.88 325.668 250.389 325.254 250.764C324.84 251.139 324.278 251.35 323.693 251.35Z" fill="black"/>
<path d="M312.875 269.85H324.047C324.532 269.847 324.997 269.672 325.34 269.361C325.683 269.05 325.877 268.63 325.88 268.19C325.88 267.749 325.687 267.326 325.344 267.013C325 266.7 324.534 266.523 324.047 266.52H312.875C312.388 266.523 311.921 266.7 311.578 267.013C311.235 267.326 311.042 267.749 311.042 268.19C311.045 268.63 311.239 269.05 311.582 269.361C311.925 269.672 312.39 269.847 312.875 269.85Z" fill="#BFE2FE"/>
<path d="M312.875 276.94H324.047C324.534 276.937 325 276.76 325.344 276.447C325.687 276.134 325.88 275.711 325.88 275.27C325.877 274.83 325.683 274.41 325.34 274.099C324.997 273.788 324.532 273.613 324.047 273.61H312.875C312.39 273.613 311.925 273.788 311.582 274.099C311.239 274.41 311.045 274.83 311.042 275.27C311.042 275.711 311.235 276.134 311.578 276.447C311.921 276.76 312.388 276.937 312.875 276.94Z" fill="#BFE2FE"/>
<path d="M312.875 284H324.047C324.534 283.997 325 283.82 325.344 283.507C325.687 283.195 325.88 282.771 325.88 282.33C325.88 281.889 325.687 281.466 325.344 281.153C325 280.84 324.534 280.663 324.047 280.66H312.875C312.388 280.663 311.921 280.84 311.578 281.153C311.235 281.466 311.042 281.889 311.042 282.33C311.042 282.771 311.235 283.195 311.578 283.507C311.921 283.82 312.388 283.997 312.875 284Z" fill="#BFE2FE"/>
<path d="M181.178 249.35C183.331 232.48 169.973 218.81 151.37 218.81H287.372C305.997 218.81 319.388 232.48 317.18 249.35H181.178Z" fill="#2F80ED"/>
<g opacity="0.3">
<path d="M181.179 249.35C183.331 232.48 169.973 218.81 151.371 218.81H287.372C305.997 218.81 319.388 232.48 317.18 249.35H181.179Z" fill="#BFE2FE"/>
</g>
<path d="M151.348 218.81H287.372C268.759 218.81 251.923 232.48 249.77 249.35L234.314 370.68C232.172 387.55 215.336 401.22 196.712 401.22H128.153C109.529 401.22 96.1372 387.55 98.3452 370.68L113.801 249.35C115.921 232.48 132.724 218.81 151.348 218.81Z" fill="#2F80ED"/>
<path opacity="0.7" d="M151.348 218.81H287.372C268.759 218.81 251.923 232.48 249.77 249.35L234.314 370.68C232.172 387.55 215.336 401.22 196.712 401.22H128.153C109.529 401.22 96.1372 387.55 98.3452 370.68L113.801 249.35C115.921 232.48 132.724 218.81 151.348 218.81Z" fill="#BFE2FE"/>
<path d="M166.914 370.68C164.761 387.55 178.12 401.22 196.722 401.22H60.7205C42.096 401.22 28.7045 387.55 30.9125 370.68H166.914Z" fill="#2F80ED"/>
<path opacity="0.5" d="M166.914 370.68C164.761 387.55 178.12 401.22 196.722 401.22H60.7205C42.096 401.22 28.7045 387.55 30.9125 370.68H166.914Z" fill="#BFE2FE"/>
<path d="M123.649 259.9H126.85L125.658 269.26H122.456L123.649 259.9Z" fill="#2F80ED"/>
<path d="M129.169 259.9H132.15L135.384 265.08L136.036 259.9H139.05L137.857 269.26H134.854L131.631 264.12L130.979 269.26H127.976L129.169 259.9Z" fill="#2F80ED"/>
<path d="M140.109 259.9H143.421L144.89 266.64L148.036 259.9H151.282L146.248 269.26H142.792L140.109 259.9Z" fill="#2F80ED"/>
<path d="M150.862 264.59C150.968 263.23 151.634 261.956 152.728 261.02C153.861 260.14 155.321 259.683 156.812 259.74C157.512 259.688 158.215 259.773 158.875 259.991C159.534 260.208 160.134 260.553 160.632 261C161.06 261.489 161.366 262.056 161.529 262.661C161.693 263.267 161.711 263.898 161.582 264.51C161.491 265.461 161.163 266.381 160.621 267.2C160.139 267.895 159.461 268.462 158.656 268.84C157.75 269.208 156.771 269.406 155.778 269.419C154.785 269.433 153.8 269.263 152.882 268.92C152.15 268.568 151.567 268.005 151.226 267.32C150.831 266.457 150.705 265.513 150.862 264.59ZM154.052 264.59C153.895 265.27 154.008 265.979 154.372 266.59C154.55 266.797 154.78 266.962 155.044 267.07C155.307 267.178 155.596 267.226 155.885 267.21C156.195 267.22 156.503 267.171 156.79 267.066C157.077 266.961 157.337 266.802 157.552 266.6C158.076 265.971 158.37 265.208 158.391 264.42C158.548 263.761 158.426 263.072 158.049 262.49C157.867 262.285 157.634 262.123 157.369 262.017C157.104 261.911 156.815 261.864 156.525 261.88C156.222 261.877 155.922 261.93 155.643 262.037C155.363 262.144 155.111 262.301 154.902 262.5C154.375 263.098 154.076 263.835 154.052 264.6V264.59Z" fill="#2F80ED"/>
<path d="M164.01 259.9H167.211L166.019 269.26H162.817L164.01 259.9Z" fill="#2F80ED"/>
<path d="M175.679 265.43L178.373 266.2C178.134 266.852 177.759 267.456 177.269 267.98C176.824 268.45 176.265 268.819 175.635 269.06C174.889 269.319 174.093 269.441 173.295 269.42C172.372 269.452 171.453 269.302 170.601 268.98C169.879 268.637 169.301 268.089 168.956 267.42C168.513 266.524 168.371 265.529 168.547 264.56C168.644 263.206 169.293 261.934 170.369 260.99C171.48 260.126 172.914 259.678 174.377 259.74C175.431 259.676 176.479 259.929 177.357 260.46C178.095 261.019 178.585 261.8 178.737 262.66L175.845 263.22C175.814 263.001 175.736 262.79 175.613 262.6C175.473 262.385 175.271 262.209 175.028 262.09C174.766 261.966 174.473 261.904 174.178 261.91C173.837 261.904 173.499 261.973 173.193 262.11C172.888 262.248 172.623 262.45 172.422 262.7C172.02 263.248 171.787 263.883 171.749 264.54C171.568 265.256 171.658 266.006 172.003 266.67C172.161 266.866 172.371 267.023 172.615 267.124C172.859 267.226 173.127 267.269 173.394 267.25C173.657 267.263 173.92 267.23 174.168 267.151C174.416 267.072 174.644 266.949 174.84 266.79C175.229 266.4 175.516 265.935 175.679 265.43Z" fill="#2F80ED"/>
<path d="M180.725 259.9H189.281L189.027 261.9H183.662L183.474 263.39H188.442L188.199 265.3H183.264L183.032 267.14H188.552L188.287 269.26H179.577L180.725 259.9Z" fill="#2F80ED"/>
<path d="M233.783 293.69H118.459L119.961 281.85H235.285L233.783 293.69Z" fill="#2F80ED"/>
<path opacity="0.8" d="M233.784 293.69H118.46L117.234 303.35H232.558L233.784 293.69Z" fill="#BFE2FE"/>
<path d="M225.813 356.37H190.717L191.434 350.66H226.541L225.813 356.37Z" fill="#2F80ED"/>
<path opacity="0.8" d="M225.812 356.37H190.716L190.12 361.04H225.216L225.812 356.37Z" fill="#BFE2FE"/>
<path opacity="0.5" d="M231.322 313.02H115.998L117.235 303.35H232.559L231.322 313.02Z" fill="#BFE2FE"/>
<path opacity="0.8" d="M231.321 313.02H115.998L114.772 322.69H230.096L231.321 313.02Z" fill="#BFE2FE"/>
<path opacity="0.5" d="M228.87 332.35H113.535L114.771 322.69H230.095L228.87 332.35Z" fill="#BFE2FE"/>
<path opacity="0.8" d="M228.87 332.35H113.535L112.31 342.02H227.634L228.87 332.35Z" fill="#BFE2FE"/>
</svg>
