<svg width="1440" height="1391" viewBox="0 0 1440 1391" fill="none" xmlns="http://www.w3.org/2000/svg">
<mask id="mask0_14447_30406" style="mask-type:alpha" maskUnits="userSpaceOnUse" x="0" y="-49" width="1440" height="1440">
<rect width="1440" height="1440" transform="translate(0 -49)" fill="url(#paint0_radial_14447_30406)"/>
</mask>
<g mask="url(#mask0_14447_30406)">
<g clip-path="url(#clip0_14447_30406)">
<g clip-path="url(#clip1_14447_30406)">
<line x1="0.5" y1="-49" x2="0.5" y2="1391" stroke="#EFF8FF"/>
<line x1="80.5" y1="-49" x2="80.5" y2="1391" stroke="#EFF8FF"/>
<line x1="160.5" y1="-49" x2="160.5" y2="1391" stroke="#EFF8FF"/>
<line x1="240.5" y1="-49" x2="240.5" y2="1391" stroke="#EFF8FF"/>
<line x1="320.5" y1="-49" x2="320.5" y2="1391" stroke="#EFF8FF"/>
<line x1="400.5" y1="-49" x2="400.5" y2="1391" stroke="#EFF8FF"/>
<line x1="480.5" y1="-49" x2="480.5" y2="1391" stroke="#EFF8FF"/>
<line x1="560.5" y1="-49" x2="560.5" y2="1391" stroke="#EFF8FF"/>
<line x1="640.5" y1="-49" x2="640.5" y2="1391" stroke="#EFF8FF"/>
<line x1="720.5" y1="-49" x2="720.5" y2="1391" stroke="#EFF8FF"/>
<line x1="800.5" y1="-49" x2="800.5" y2="1391" stroke="#EFF8FF"/>
<line x1="880.5" y1="-49" x2="880.5" y2="1391" stroke="#EFF8FF"/>
<line x1="960.5" y1="-49" x2="960.5" y2="1391" stroke="#EFF8FF"/>
<line x1="1040.5" y1="-49" x2="1040.5" y2="1391" stroke="#EFF8FF"/>
<line x1="1120.5" y1="-49" x2="1120.5" y2="1391" stroke="#EFF8FF"/>
<line x1="1200.5" y1="-49" x2="1200.5" y2="1391" stroke="#EFF8FF"/>
<line x1="1280.5" y1="-49" x2="1280.5" y2="1391" stroke="#EFF8FF"/>
<line x1="1360.5" y1="-49" x2="1360.5" y2="1391" stroke="#EFF8FF"/>
</g>
<g clip-path="url(#clip2_14447_30406)">
<line x1="-240" y1="30.5" x2="1680" y2="30.5" stroke="#EFF8FF"/>
<line x1="-240" y1="110.5" x2="1680" y2="110.5" stroke="#EFF8FF"/>
<line x1="-240" y1="190.5" x2="1680" y2="190.5" stroke="#EFF8FF"/>
<line x1="-240" y1="270.5" x2="1680" y2="270.5" stroke="#EFF8FF"/>
<line x1="-240" y1="350.5" x2="1680" y2="350.5" stroke="#EFF8FF"/>
<line x1="-240" y1="430.5" x2="1680" y2="430.5" stroke="#EFF8FF"/>
<line x1="-240" y1="510.5" x2="1680" y2="510.5" stroke="#EFF8FF"/>
<line x1="-240" y1="590.5" x2="1680" y2="590.5" stroke="#EFF8FF"/>
<line x1="-240" y1="670.5" x2="1680" y2="670.5" stroke="#EFF8FF"/>
<line x1="-240" y1="750.5" x2="1680" y2="750.5" stroke="#EFF8FF"/>
<line x1="-240" y1="830.5" x2="1680" y2="830.5" stroke="#EFF8FF"/>
<line x1="-240" y1="910.5" x2="1680" y2="910.5" stroke="#EFF8FF"/>
<line x1="-240" y1="990.5" x2="1680" y2="990.5" stroke="#EFF8FF"/>
<line x1="-240" y1="1070.5" x2="1680" y2="1070.5" stroke="#EFF8FF"/>
<line x1="-240" y1="1150.5" x2="1680" y2="1150.5" stroke="#EFF8FF"/>
<line x1="-240" y1="1230.5" x2="1680" y2="1230.5" stroke="#EFF8FF"/>
<line x1="-240" y1="1310.5" x2="1680" y2="1310.5" stroke="#EFF8FF"/>
</g>
</g>
</g>
<defs>
<radialGradient id="paint0_radial_14447_30406" cx="0" cy="0" r="1" gradientUnits="userSpaceOnUse" gradientTransform="translate(720 -0.000171661) rotate(90) scale(1440 751.588)">
<stop/>
<stop offset="0.953125" stop-opacity="0"/>
</radialGradient>
<clipPath id="clip0_14447_30406">
<rect width="1920" height="1440" fill="white" transform="translate(-240 -49)"/>
</clipPath>
<clipPath id="clip1_14447_30406">
<rect width="1920" height="1440" fill="white" transform="translate(-240 -49)"/>
</clipPath>
<clipPath id="clip2_14447_30406">
<rect width="1920" height="1440" fill="white" transform="translate(-240 -49)"/>
</clipPath>
</defs>
</svg>
