<svg width="231" height="42" viewBox="0 0 231 42" fill="none" xmlns="http://www.w3.org/2000/svg">
<rect width="42" height="42" rx="9" fill="url(#paint0_linear_14174_18599)"/>
<rect x="0.25" y="0.25" width="41.5" height="41.5" rx="8.75" stroke="white" stroke-opacity="0.27" stroke-width="0.5"/>
<path d="M14.6812 11.5126C14.9492 11.0485 15.4444 10.7626 15.9803 10.7626L26.3163 10.7626C26.8522 10.7626 27.3474 11.0485 27.6154 11.5126L32.7834 20.4639C33.0513 20.928 33.0513 21.4997 32.7834 21.9639L28.8052 28.8542L27.5062 26.6042L30.6183 21.2139L25.8833 13.0126L16.4133 13.0126L13.3172 18.3751H10.7192L14.6812 11.5126Z" fill="#EFF8FF"/>
<path d="M25.9056 29.3765L27.0995 31.4444C26.8676 31.5864 26.5976 31.6651 26.3163 31.6651H15.9803C15.4444 31.6651 14.9492 31.3792 14.6812 30.9151L9.51322 21.9639C9.37471 21.724 9.3078 21.4553 9.31249 21.1876L20.5363 21.1875C20.9391 21.1875 21.3112 21.4028 21.5118 21.7521L25.8987 29.3885L25.9056 29.3765Z" fill="#EFF8FF"/>
<path d="M55.7373 30.7539C54.0615 30.7539 52.555 30.373 51.2178 29.6113C49.8805 28.8496 48.8226 27.7451 48.0439 26.2979C47.2653 24.8506 46.876 23.1029 46.876 21.0547C46.876 18.9896 47.2653 17.2334 48.0439 15.7861C48.8226 14.3304 49.8805 13.2259 51.2178 12.4727C52.555 11.7109 54.0615 11.3301 55.7373 11.3301C57.4131 11.3301 58.9196 11.7109 60.2568 12.4727C61.5941 13.2259 62.6478 14.3304 63.418 15.7861C64.1966 17.2334 64.5859 18.9896 64.5859 21.0547C64.5859 23.1113 64.1966 24.8633 63.418 26.3105C62.6478 27.7578 61.5941 28.8623 60.2568 29.624C58.9196 30.3773 57.4131 30.7539 55.7373 30.7539ZM55.7373 27.2246C56.7106 27.2246 57.557 26.9876 58.2764 26.5137C58.9958 26.0397 59.5501 25.3457 59.9395 24.4316C60.3372 23.5091 60.5361 22.3835 60.5361 21.0547C60.5361 19.7174 60.3372 18.5876 59.9395 17.665C59.5501 16.7425 58.9958 16.0443 58.2764 15.5703C57.557 15.0964 56.7106 14.8594 55.7373 14.8594C54.7725 14.8594 53.9303 15.0964 53.2109 15.5703C52.4915 16.0443 51.9287 16.7425 51.5225 17.665C51.1247 18.5876 50.9258 19.7174 50.9258 21.0547C50.9258 22.3835 51.1247 23.5091 51.5225 24.4316C51.9287 25.3457 52.4915 26.0397 53.2109 26.5137C53.9303 26.9876 54.7725 27.2246 55.7373 27.2246ZM66.6299 30.5V16.3066H70.4258V18.7949H70.5781C70.8405 17.9147 71.2764 17.2503 71.8857 16.8018C72.4951 16.3447 73.1934 16.1162 73.9805 16.1162C74.1836 16.1162 74.3952 16.1289 74.6152 16.1543C74.8438 16.1712 75.0469 16.2051 75.2246 16.2559V19.7344C75.0384 19.6751 74.7803 19.6286 74.4502 19.5947C74.1286 19.5524 73.8281 19.5312 73.5488 19.5312C72.9818 19.5312 72.4697 19.6582 72.0127 19.9121C71.5557 20.1576 71.196 20.5046 70.9336 20.9531C70.6797 21.3932 70.5527 21.901 70.5527 22.4766V30.5H66.6299ZM76.4053 30.5V16.3066H80.3281V30.5H76.4053ZM78.3604 14.4912C77.7764 14.4912 77.277 14.2965 76.8623 13.9072C76.4476 13.5179 76.2402 13.0482 76.2402 12.498C76.2402 11.9479 76.4476 11.4824 76.8623 11.1016C77.277 10.7122 77.7764 10.5176 78.3604 10.5176C78.9528 10.5176 79.4564 10.7122 79.8711 11.1016C80.2858 11.4824 80.4932 11.9479 80.4932 12.498C80.4932 13.0482 80.2858 13.5179 79.8711 13.9072C79.4564 14.2965 78.9528 14.4912 78.3604 14.4912ZM88.999 36.1113C87.0863 36.1113 85.5882 35.7305 84.5049 34.9688C83.4215 34.2155 82.7614 33.276 82.5244 32.1504L86.1553 31.668C86.2653 31.9557 86.4388 32.2223 86.6758 32.4678C86.9128 32.7132 87.2301 32.9079 87.6279 33.0518C88.0257 33.2041 88.5124 33.2803 89.0879 33.2803C89.9427 33.2803 90.6494 33.0729 91.208 32.6582C91.7666 32.252 92.0459 31.5622 92.0459 30.5889V27.9863H91.8809C91.7116 28.3757 91.4535 28.748 91.1064 29.1035C90.7594 29.459 90.3151 29.7467 89.7734 29.9668C89.2318 30.1868 88.5843 30.2969 87.8311 30.2969C86.7646 30.2969 85.7956 30.0514 84.9238 29.5605C84.0605 29.0612 83.3665 28.2995 82.8418 27.2754C82.3255 26.2513 82.0674 24.9564 82.0674 23.3906C82.0674 21.7741 82.3298 20.4284 82.8545 19.3535C83.3877 18.2786 84.0902 17.4746 84.9619 16.9414C85.8337 16.3997 86.79 16.1289 87.8311 16.1289C88.6266 16.1289 89.291 16.2643 89.8242 16.5352C90.3659 16.7975 90.806 17.1276 91.1445 17.5254C91.4831 17.9232 91.737 18.3167 91.9062 18.7061H92.0586V16.3066H95.9307V30.6523C95.9307 31.8542 95.6344 32.8613 95.042 33.6738C94.4495 34.4863 93.6328 35.0957 92.5918 35.502C91.5508 35.9082 90.3532 36.1113 88.999 36.1113ZM89.0752 27.3389C90.0231 27.3389 90.7552 26.9876 91.2715 26.2852C91.7962 25.5827 92.0586 24.6094 92.0586 23.3652C92.0586 22.5358 91.9401 21.8164 91.7031 21.207C91.4746 20.5892 91.1403 20.111 90.7002 19.7725C90.2601 19.4255 89.7184 19.252 89.0752 19.252C88.432 19.252 87.8861 19.4297 87.4375 19.7852C86.9974 20.1322 86.6631 20.6146 86.4346 21.2324C86.2061 21.8503 86.0918 22.5612 86.0918 23.3652C86.0918 24.1777 86.2061 24.8844 86.4346 25.4854C86.6631 26.0778 86.9974 26.5348 87.4375 26.8564C87.8861 27.1781 88.432 27.3389 89.0752 27.3389ZM98.2412 30.5V16.3066H102.164V30.5H98.2412ZM100.196 14.4912C99.6123 14.4912 99.113 14.2965 98.6982 13.9072C98.2835 13.5179 98.0762 13.0482 98.0762 12.498C98.0762 11.9479 98.2835 11.4824 98.6982 11.1016C99.113 10.7122 99.6123 10.5176 100.196 10.5176C100.789 10.5176 101.292 10.7122 101.707 11.1016C102.122 11.4824 102.329 11.9479 102.329 12.498C102.329 13.0482 102.122 13.5179 101.707 13.9072C101.292 14.2965 100.789 14.4912 100.196 14.4912ZM108.41 22.2988V30.5H104.487V16.3066H108.347V18.833H108.486C108.808 17.9951 109.32 17.335 110.022 16.8525C110.725 16.3701 111.605 16.1289 112.663 16.1289C113.645 16.1289 114.5 16.3447 115.228 16.7764C115.964 17.208 116.535 17.8216 116.941 18.6172C117.348 19.4128 117.551 20.3649 117.551 21.4736V30.5H113.628V22.1719C113.628 21.3086 113.404 20.6315 112.955 20.1406C112.507 19.6413 111.889 19.3916 111.102 19.3916C110.577 19.3916 110.111 19.5101 109.705 19.7471C109.299 19.9756 108.981 20.3057 108.753 20.7373C108.524 21.1689 108.41 21.6895 108.41 22.2988ZM123.911 30.7666C123.014 30.7666 122.206 30.61 121.486 30.2969C120.775 29.9753 120.217 29.5013 119.811 28.875C119.404 28.2487 119.201 27.4701 119.201 26.5391C119.201 25.7435 119.345 25.0833 119.633 24.5586C119.921 24.0254 120.314 23.5938 120.813 23.2637C121.313 22.9336 121.88 22.6839 122.515 22.5146C123.149 22.3454 123.822 22.2269 124.533 22.1592C125.354 22.083 126.014 22.0068 126.514 21.9307C127.013 21.8545 127.377 21.7402 127.605 21.5879C127.842 21.4271 127.961 21.1986 127.961 20.9023V20.8389C127.961 20.2549 127.775 19.8021 127.402 19.4805C127.038 19.1589 126.522 18.998 125.854 18.998C125.151 18.998 124.588 19.1546 124.165 19.4678C123.75 19.7725 123.475 20.1618 123.34 20.6357L119.696 20.3438C119.882 19.4805 120.246 18.7357 120.788 18.1094C121.33 17.4746 122.028 16.988 122.883 16.6494C123.746 16.3024 124.745 16.1289 125.879 16.1289C126.666 16.1289 127.419 16.222 128.139 16.4082C128.858 16.5944 129.497 16.8822 130.056 17.2715C130.623 17.6523 131.071 18.1475 131.401 18.7568C131.731 19.3662 131.896 20.0898 131.896 20.9277V30.5H128.151V28.5195H128.05C127.821 28.9681 127.517 29.3617 127.136 29.7002C126.755 30.0303 126.298 30.2926 125.765 30.4873C125.231 30.6735 124.614 30.7666 123.911 30.7666ZM125.041 28.0498C125.617 28.0498 126.124 27.9355 126.564 27.707C127.013 27.4701 127.36 27.1569 127.605 26.7676C127.859 26.3698 127.986 25.9255 127.986 25.4346V23.9238C127.868 24 127.699 24.0719 127.479 24.1396C127.267 24.2074 127.03 24.2666 126.768 24.3174C126.505 24.3682 126.243 24.4147 125.98 24.457C125.718 24.4909 125.481 24.5247 125.27 24.5586C124.804 24.6263 124.398 24.7363 124.051 24.8887C123.704 25.0326 123.433 25.2314 123.238 25.4854C123.052 25.7308 122.959 26.0397 122.959 26.4121C122.959 26.9453 123.154 27.3516 123.543 27.6309C123.932 27.9102 124.432 28.0498 125.041 28.0498ZM138.117 11.584V30.5H134.194V11.584H138.117ZM149.67 11.584V30.5H145.684V11.584H149.67ZM155.967 22.2988V30.5H152.044V16.3066H155.903V18.833H156.043C156.365 17.9951 156.877 17.335 157.579 16.8525C158.282 16.3701 159.162 16.1289 160.22 16.1289C161.201 16.1289 162.056 16.3447 162.784 16.7764C163.521 17.208 164.092 17.8216 164.498 18.6172C164.904 19.4128 165.107 20.3649 165.107 21.4736V30.5H161.185V22.1719C161.185 21.3086 160.96 20.6315 160.512 20.1406C160.063 19.6413 159.445 19.3916 158.658 19.3916C158.133 19.3916 157.668 19.5101 157.262 19.7471C156.855 19.9756 156.538 20.3057 156.31 20.7373C156.081 21.1689 155.967 21.6895 155.967 22.2988ZM180.126 16.3066L175.175 30.5H170.731L165.793 16.3066H169.944L172.928 26.4756H173.08L176.013 16.3066H180.126ZM187.248 30.7793C185.818 30.7793 184.578 30.4746 183.528 29.8652C182.487 29.2474 181.683 28.3926 181.116 27.3008C180.558 26.2005 180.278 24.9225 180.278 23.4668C180.278 21.9941 180.558 20.7119 181.116 19.6201C181.683 18.5199 182.487 17.665 183.528 17.0557C184.578 16.4378 185.818 16.1289 187.248 16.1289C188.687 16.1289 189.927 16.4378 190.968 17.0557C192.017 17.665 192.821 18.5199 193.38 19.6201C193.947 20.7119 194.23 21.9941 194.23 23.4668C194.23 24.9225 193.947 26.2005 193.38 27.3008C192.821 28.3926 192.017 29.2474 190.968 29.8652C189.927 30.4746 188.687 30.7793 187.248 30.7793ZM187.273 27.707C187.925 27.707 188.471 27.5251 188.911 27.1611C189.351 26.7887 189.681 26.2809 189.901 25.6377C190.13 24.9945 190.244 24.2624 190.244 23.4414C190.244 22.612 190.13 21.8799 189.901 21.2451C189.681 20.6104 189.351 20.111 188.911 19.7471C188.471 19.3831 187.925 19.2012 187.273 19.2012C186.613 19.2012 186.059 19.3831 185.61 19.7471C185.17 20.111 184.836 20.6104 184.607 21.2451C184.387 21.8799 184.277 22.612 184.277 23.4414C184.277 24.2624 184.387 24.9945 184.607 25.6377C184.836 26.2809 185.17 26.7887 185.61 27.1611C186.059 27.5251 186.613 27.707 187.273 27.707ZM195.97 30.5V16.3066H199.893V30.5H195.97ZM197.925 14.4912C197.341 14.4912 196.841 14.2965 196.427 13.9072C196.012 13.5179 195.805 13.0482 195.805 12.498C195.805 11.9479 196.012 11.4824 196.427 11.1016C196.841 10.7122 197.341 10.5176 197.925 10.5176C198.517 10.5176 199.021 10.7122 199.436 11.1016C199.85 11.4824 200.058 11.9479 200.058 12.498C200.058 13.0482 199.85 13.5179 199.436 13.9072C199.021 14.2965 198.517 14.4912 197.925 14.4912ZM208.602 30.7793C207.154 30.7793 205.91 30.4704 204.869 29.8525C203.828 29.2262 203.028 28.3672 202.47 27.2754C201.911 26.1751 201.632 24.9056 201.632 23.4668C201.632 22.0111 201.911 20.7331 202.47 19.6328C203.037 18.5326 203.841 17.6735 204.882 17.0557C205.923 16.4378 207.163 16.1289 208.602 16.1289C209.837 16.1289 210.916 16.3532 211.839 16.8018C212.77 17.2503 213.506 17.8809 214.048 18.6934C214.59 19.5059 214.886 20.4622 214.937 21.5625H211.229C211.162 21.0885 211.018 20.6738 210.798 20.3184C210.578 19.9629 210.286 19.6878 209.922 19.4932C209.558 19.2985 209.135 19.2012 208.652 19.2012C208.043 19.2012 207.51 19.3662 207.053 19.6963C206.604 20.0179 206.253 20.4961 205.999 21.1309C205.754 21.7572 205.631 22.5189 205.631 23.416C205.631 24.3132 205.754 25.0833 205.999 25.7266C206.253 26.3698 206.604 26.8607 207.053 27.1992C207.51 27.5378 208.043 27.707 208.652 27.707C209.329 27.707 209.901 27.4954 210.366 27.0723C210.832 26.6406 211.119 26.0482 211.229 25.2949H214.937C214.877 26.3783 214.585 27.3346 214.061 28.1641C213.536 28.985 212.812 29.6283 211.89 30.0938C210.967 30.5508 209.871 30.7793 208.602 30.7793ZM223.1 30.7793C221.644 30.7793 220.387 30.4831 219.329 29.8906C218.271 29.2982 217.459 28.4561 216.892 27.3643C216.333 26.264 216.054 24.9648 216.054 23.4668C216.054 22.0111 216.333 20.7331 216.892 19.6328C217.459 18.5326 218.254 17.6735 219.278 17.0557C220.311 16.4378 221.521 16.1289 222.909 16.1289C223.849 16.1289 224.725 16.2812 225.537 16.5859C226.35 16.8822 227.061 17.3307 227.67 17.9316C228.279 18.5241 228.753 19.2731 229.092 20.1787C229.43 21.0758 229.6 22.1296 229.6 23.3398V24.4062H217.615V21.9814H227.695L225.867 22.6162C225.867 21.8968 225.757 21.2705 225.537 20.7373C225.317 20.2041 224.987 19.7936 224.547 19.5059C224.115 19.2096 223.578 19.0615 222.935 19.0615C222.291 19.0615 221.745 19.2096 221.297 19.5059C220.857 19.8021 220.518 20.2041 220.281 20.7119C220.044 21.2197 219.926 21.8037 219.926 22.4639V24.1777C219.926 24.9479 220.061 25.6081 220.332 26.1582C220.603 26.6999 220.979 27.1188 221.462 27.415C221.953 27.7028 222.516 27.8467 223.15 27.8467C223.59 27.8467 223.988 27.7832 224.344 27.6562C224.699 27.5293 225.004 27.3431 225.258 27.0977C225.52 26.8522 225.715 26.556 225.842 26.209L229.473 26.4502C229.295 27.3219 228.923 28.0837 228.355 28.7354C227.797 29.3786 227.073 29.8822 226.185 30.2461C225.296 30.6016 224.268 30.7793 223.1 30.7793Z" fill="black"/>
<defs>
<linearGradient id="paint0_linear_14174_18599" x1="21" y1="-6.25849e-07" x2="-9.38773e-07" y2="42" gradientUnits="userSpaceOnUse">
<stop stop-color="#92D1FE"/>
<stop offset="0.505" stop-color="#2F80ED"/>
</linearGradient>
</defs>
</svg>
