<svg width="705" height="984" viewBox="0 0 705 984" fill="none" xmlns="http://www.w3.org/2000/svg">
<rect y="4.57764e-05" width="705" height="984" rx="24" fill="#1D51B0"/>
<g opacity="0.5">
<path fill-rule="evenodd" clip-rule="evenodd" d="M255.506 55.1781C255.506 55.3499 255.645 55.4892 255.817 55.4892L704.689 55.4892C704.861 55.4892 705 55.3499 705 55.1781C705 55.0063 704.861 54.867 704.689 54.867L255.817 54.867C255.645 54.867 255.506 55.0063 255.506 55.1781Z" fill="url(#paint0_linear_14174_18766)" fill-opacity="0.5"/>
<path fill-rule="evenodd" clip-rule="evenodd" d="M460.293 311.84C460.433 311.84 460.546 311.727 460.546 311.587L460.546 0.252958C460.546 0.113267 460.433 2.4402e-05 460.293 2.43976e-05C460.153 2.43933e-05 460.04 0.113266 460.04 0.252958L460.04 311.587C460.04 311.727 460.153 311.84 460.293 311.84Z" fill="url(#paint1_linear_14174_18766)" fill-opacity="0.5"/>
<path fill-rule="evenodd" clip-rule="evenodd" d="M255.506 119.265C255.506 119.437 255.645 119.576 255.817 119.576L704.689 119.576C704.861 119.576 705 119.437 705 119.265C705 119.093 704.861 118.954 704.689 118.954L255.817 118.954C255.645 118.954 255.506 119.093 255.506 119.265Z" fill="url(#paint2_linear_14174_18766)" fill-opacity="0.5"/>
<path fill-rule="evenodd" clip-rule="evenodd" d="M511.553 311.84C511.693 311.84 511.806 311.727 511.806 311.587L511.806 0.252963C511.806 0.113271 511.693 2.88833e-05 511.553 2.88789e-05C511.414 2.88746e-05 511.3 0.113271 511.3 0.252963L511.3 311.587C511.3 311.727 511.414 311.84 511.553 311.84Z" fill="url(#paint3_linear_14174_18766)" fill-opacity="0.5"/>
<path fill-rule="evenodd" clip-rule="evenodd" d="M255.253 311.84C255.393 311.84 255.506 311.727 255.506 311.587L255.506 0.25294C255.506 0.113249 255.393 6.47681e-06 255.253 6.47245e-06C255.113 6.46809e-06 255 0.113249 255 0.25294L255 311.587C255 311.727 255.113 311.84 255.253 311.84Z" fill="url(#paint4_linear_14174_18766)" fill-opacity="0.5"/>
<path fill-rule="evenodd" clip-rule="evenodd" d="M255.506 183.354C255.506 183.525 255.645 183.665 255.817 183.665L704.689 183.665C704.861 183.665 705 183.525 705 183.354C705 183.182 704.861 183.043 704.689 183.043L255.817 183.043C255.645 183.043 255.506 183.182 255.506 183.354Z" fill="url(#paint5_linear_14174_18766)" fill-opacity="0.5"/>
<path fill-rule="evenodd" clip-rule="evenodd" d="M562.813 311.84C562.953 311.84 563.066 311.727 563.066 311.587L563.066 0.252967C563.066 0.113276 562.953 3.33646e-05 562.813 3.33602e-05C562.673 3.33558e-05 562.56 0.113275 562.56 0.252967L562.56 311.587C562.56 311.727 562.673 311.84 562.813 311.84Z" fill="url(#paint6_linear_14174_18766)" fill-opacity="0.5"/>
<path fill-rule="evenodd" clip-rule="evenodd" d="M306.513 311.84C306.653 311.84 306.766 311.727 306.766 311.587L306.766 0.252945C306.766 0.113253 306.653 1.09581e-05 306.513 1.09538e-05C306.374 1.09494e-05 306.26 0.113253 306.26 0.252945L306.26 311.587C306.26 311.727 306.374 311.84 306.513 311.84Z" fill="url(#paint7_linear_14174_18766)" fill-opacity="0.5"/>
<path fill-rule="evenodd" clip-rule="evenodd" d="M255.506 247.441C255.506 247.613 255.645 247.752 255.817 247.752L704.689 247.752C704.861 247.752 705 247.613 705 247.441C705 247.269 704.861 247.13 704.689 247.13L255.817 247.13C255.645 247.13 255.506 247.269 255.506 247.441Z" fill="url(#paint8_linear_14174_18766)" fill-opacity="0.5"/>
<path fill-rule="evenodd" clip-rule="evenodd" d="M614.073 311.84C614.213 311.84 614.326 311.727 614.326 311.587L614.326 0.252969C614.326 0.113279 614.213 3.78459e-05 614.073 3.78415e-05C613.934 3.78372e-05 613.82 0.113281 613.82 0.252971L613.82 311.587C613.82 311.727 613.934 311.84 614.073 311.84Z" fill="url(#paint9_linear_14174_18766)" fill-opacity="0.5"/>
<path fill-rule="evenodd" clip-rule="evenodd" d="M357.773 311.84C357.913 311.84 358.026 311.727 358.026 311.587L358.026 0.252949C358.026 0.113258 357.913 1.54394e-05 357.773 1.5435e-05C357.633 1.54307e-05 357.52 0.113257 357.52 0.252949L357.52 311.587C357.52 311.727 357.633 311.84 357.773 311.84Z" fill="url(#paint10_linear_14174_18766)" fill-opacity="0.5"/>
<path fill-rule="evenodd" clip-rule="evenodd" d="M665.333 311.84C665.473 311.84 665.586 311.727 665.586 311.587L665.586 0.252975C665.586 0.113284 665.473 4.23271e-05 665.333 4.23228e-05C665.193 4.23184e-05 665.08 0.113285 665.08 0.252976L665.08 311.587C665.08 311.727 665.193 311.84 665.333 311.84Z" fill="url(#paint11_linear_14174_18766)" fill-opacity="0.5"/>
<path fill-rule="evenodd" clip-rule="evenodd" d="M409.033 311.84C409.173 311.84 409.286 311.727 409.286 311.587L409.286 0.252954C409.286 0.113262 409.173 1.99207e-05 409.033 1.99164e-05C408.894 1.9912e-05 408.78 0.113262 408.78 0.252954L408.78 311.587C408.78 311.727 408.894 311.84 409.033 311.84Z" fill="url(#paint12_linear_14174_18766)" fill-opacity="0.5"/>
<rect width="50.7536" height="63.4658" rx="24" transform="matrix(-1 -1.0753e-07 -7.10754e-08 1 613.821 55.4894)" fill="white" fill-opacity="0.15"/>
<rect width="50.756" height="63.4661" rx="24" transform="matrix(-1 -1.0753e-07 -7.10754e-08 1 562.56 119.577)" fill="white" fill-opacity="0.15"/>
</g>
<g opacity="0.5">
<path fill-rule="evenodd" clip-rule="evenodd" d="M449.494 928.822C449.494 928.65 449.355 928.511 449.183 928.511L0.311107 928.511C0.139287 928.511 0 928.65 0 928.822C0 928.994 0.139289 929.133 0.311108 929.133L449.183 929.133C449.355 929.133 449.494 928.994 449.494 928.822Z" fill="url(#paint13_linear_14174_18766)" fill-opacity="0.5"/>
<path fill-rule="evenodd" clip-rule="evenodd" d="M244.707 672.16C244.567 672.16 244.454 672.273 244.454 672.413L244.454 983.747C244.454 983.887 244.567 984 244.707 984C244.847 984 244.96 983.887 244.96 983.747L244.96 672.413C244.96 672.273 244.847 672.16 244.707 672.16Z" fill="url(#paint14_linear_14174_18766)" fill-opacity="0.5"/>
<path fill-rule="evenodd" clip-rule="evenodd" d="M449.494 864.735C449.494 864.563 449.355 864.424 449.183 864.424L0.311109 864.424C0.139288 864.424 0 864.563 0 864.735C0 864.907 0.139288 865.046 0.311108 865.046L449.183 865.046C449.355 865.046 449.494 864.907 449.494 864.735Z" fill="url(#paint15_linear_14174_18766)" fill-opacity="0.5"/>
<path fill-rule="evenodd" clip-rule="evenodd" d="M193.447 672.16C193.307 672.16 193.194 672.273 193.194 672.413L193.194 983.747C193.194 983.887 193.307 984 193.447 984C193.586 984 193.7 983.887 193.7 983.747L193.7 672.413C193.7 672.273 193.586 672.16 193.447 672.16Z" fill="url(#paint16_linear_14174_18766)" fill-opacity="0.5"/>
<path fill-rule="evenodd" clip-rule="evenodd" d="M449.747 672.16C449.607 672.16 449.494 672.273 449.494 672.413L449.494 983.747C449.494 983.887 449.607 984 449.747 984C449.887 984 450 983.887 450 983.747L450 672.413C450 672.273 449.887 672.16 449.747 672.16Z" fill="url(#paint17_linear_14174_18766)" fill-opacity="0.5"/>
<path fill-rule="evenodd" clip-rule="evenodd" d="M449.494 800.646C449.494 800.475 449.355 800.335 449.183 800.335H0.311109C0.139288 800.335 0 800.475 0 800.646C0 800.818 0.139288 800.957 0.311108 800.957H449.183C449.355 800.957 449.494 800.818 449.494 800.646Z" fill="url(#paint18_linear_14174_18766)" fill-opacity="0.5"/>
<path fill-rule="evenodd" clip-rule="evenodd" d="M142.187 672.16C142.047 672.16 141.934 672.273 141.934 672.413L141.934 983.747C141.934 983.887 142.047 984 142.187 984C142.327 984 142.44 983.887 142.44 983.747L142.44 672.413C142.44 672.273 142.327 672.16 142.187 672.16Z" fill="url(#paint19_linear_14174_18766)" fill-opacity="0.5"/>
<path fill-rule="evenodd" clip-rule="evenodd" d="M398.487 672.16C398.347 672.16 398.234 672.273 398.234 672.413L398.234 983.747C398.234 983.887 398.347 984 398.487 984C398.626 984 398.74 983.887 398.74 983.747L398.74 672.413C398.74 672.273 398.626 672.16 398.487 672.16Z" fill="url(#paint20_linear_14174_18766)" fill-opacity="0.5"/>
<path fill-rule="evenodd" clip-rule="evenodd" d="M449.494 736.559C449.494 736.387 449.355 736.248 449.183 736.248H0.311109C0.139288 736.248 0 736.387 0 736.559C0 736.731 0.139288 736.87 0.311108 736.87H449.183C449.355 736.87 449.494 736.731 449.494 736.559Z" fill="url(#paint21_linear_14174_18766)" fill-opacity="0.5"/>
<path fill-rule="evenodd" clip-rule="evenodd" d="M90.9267 672.16C90.787 672.16 90.6738 672.273 90.6738 672.413L90.6738 983.747C90.6738 983.887 90.787 984 90.9267 984C91.0664 984 91.1796 983.887 91.1796 983.747L91.1796 672.413C91.1796 672.273 91.0664 672.16 90.9267 672.16Z" fill="url(#paint22_linear_14174_18766)" fill-opacity="0.5"/>
<path fill-rule="evenodd" clip-rule="evenodd" d="M347.227 672.16C347.087 672.16 346.974 672.273 346.974 672.413L346.974 983.747C346.974 983.887 347.087 984 347.227 984C347.367 984 347.48 983.887 347.48 983.747L347.48 672.413C347.48 672.273 347.367 672.16 347.227 672.16Z" fill="url(#paint23_linear_14174_18766)" fill-opacity="0.5"/>
<path fill-rule="evenodd" clip-rule="evenodd" d="M39.667 672.16C39.5274 672.16 39.4141 672.273 39.4141 672.413L39.4141 983.747C39.4141 983.887 39.5274 984 39.6671 984C39.8067 984 39.92 983.887 39.92 983.747L39.92 672.413C39.92 672.273 39.8067 672.16 39.667 672.16Z" fill="url(#paint24_linear_14174_18766)" fill-opacity="0.5"/>
<path fill-rule="evenodd" clip-rule="evenodd" d="M295.967 672.16C295.827 672.16 295.714 672.273 295.714 672.413L295.714 983.747C295.714 983.887 295.827 984 295.967 984C296.106 984 296.22 983.887 296.22 983.747L296.22 672.413C296.22 672.273 296.106 672.16 295.967 672.16Z" fill="url(#paint25_linear_14174_18766)" fill-opacity="0.5"/>
<rect width="50.7536" height="63.4658" rx="24" transform="matrix(1 0 0 -1 91.1787 928.511)" fill="white" fill-opacity="0.15"/>
<rect width="50.756" height="63.4661" rx="24" transform="matrix(1 0 0 -1 142.44 864.423)" fill="white" fill-opacity="0.15"/>
</g>
<defs>
<linearGradient id="paint0_linear_14174_18766" x1="532.872" y1="3.7004e-05" x2="414.016" y2="274.597" gradientUnits="userSpaceOnUse">
<stop stop-color="white"/>
<stop offset="1" stop-color="white" stop-opacity="0"/>
</linearGradient>
<linearGradient id="paint1_linear_14174_18766" x1="532.872" y1="3.7004e-05" x2="414.016" y2="274.597" gradientUnits="userSpaceOnUse">
<stop stop-color="white"/>
<stop offset="1" stop-color="white" stop-opacity="0"/>
</linearGradient>
<linearGradient id="paint2_linear_14174_18766" x1="532.872" y1="3.7004e-05" x2="414.016" y2="274.597" gradientUnits="userSpaceOnUse">
<stop stop-color="white"/>
<stop offset="1" stop-color="white" stop-opacity="0"/>
</linearGradient>
<linearGradient id="paint3_linear_14174_18766" x1="532.872" y1="3.7004e-05" x2="414.016" y2="274.597" gradientUnits="userSpaceOnUse">
<stop stop-color="white"/>
<stop offset="1" stop-color="white" stop-opacity="0"/>
</linearGradient>
<linearGradient id="paint4_linear_14174_18766" x1="532.872" y1="3.7004e-05" x2="414.016" y2="274.597" gradientUnits="userSpaceOnUse">
<stop stop-color="white"/>
<stop offset="1" stop-color="white" stop-opacity="0"/>
</linearGradient>
<linearGradient id="paint5_linear_14174_18766" x1="532.872" y1="3.7004e-05" x2="414.016" y2="274.597" gradientUnits="userSpaceOnUse">
<stop stop-color="white"/>
<stop offset="1" stop-color="white" stop-opacity="0"/>
</linearGradient>
<linearGradient id="paint6_linear_14174_18766" x1="532.872" y1="3.7004e-05" x2="414.016" y2="274.597" gradientUnits="userSpaceOnUse">
<stop stop-color="white"/>
<stop offset="1" stop-color="white" stop-opacity="0"/>
</linearGradient>
<linearGradient id="paint7_linear_14174_18766" x1="532.872" y1="3.7004e-05" x2="414.016" y2="274.597" gradientUnits="userSpaceOnUse">
<stop stop-color="white"/>
<stop offset="1" stop-color="white" stop-opacity="0"/>
</linearGradient>
<linearGradient id="paint8_linear_14174_18766" x1="532.872" y1="3.7004e-05" x2="414.016" y2="274.597" gradientUnits="userSpaceOnUse">
<stop stop-color="white"/>
<stop offset="1" stop-color="white" stop-opacity="0"/>
</linearGradient>
<linearGradient id="paint9_linear_14174_18766" x1="532.872" y1="3.7004e-05" x2="414.016" y2="274.597" gradientUnits="userSpaceOnUse">
<stop stop-color="white"/>
<stop offset="1" stop-color="white" stop-opacity="0"/>
</linearGradient>
<linearGradient id="paint10_linear_14174_18766" x1="532.872" y1="3.7004e-05" x2="414.016" y2="274.597" gradientUnits="userSpaceOnUse">
<stop stop-color="white"/>
<stop offset="1" stop-color="white" stop-opacity="0"/>
</linearGradient>
<linearGradient id="paint11_linear_14174_18766" x1="532.872" y1="3.7004e-05" x2="414.016" y2="274.597" gradientUnits="userSpaceOnUse">
<stop stop-color="white"/>
<stop offset="1" stop-color="white" stop-opacity="0"/>
</linearGradient>
<linearGradient id="paint12_linear_14174_18766" x1="532.872" y1="3.7004e-05" x2="414.016" y2="274.597" gradientUnits="userSpaceOnUse">
<stop stop-color="white"/>
<stop offset="1" stop-color="white" stop-opacity="0"/>
</linearGradient>
<linearGradient id="paint13_linear_14174_18766" x1="172.128" y1="984" x2="290.984" y2="709.403" gradientUnits="userSpaceOnUse">
<stop stop-color="white"/>
<stop offset="1" stop-color="white" stop-opacity="0"/>
</linearGradient>
<linearGradient id="paint14_linear_14174_18766" x1="172.128" y1="984" x2="290.984" y2="709.403" gradientUnits="userSpaceOnUse">
<stop stop-color="white"/>
<stop offset="1" stop-color="white" stop-opacity="0"/>
</linearGradient>
<linearGradient id="paint15_linear_14174_18766" x1="172.128" y1="984" x2="290.984" y2="709.403" gradientUnits="userSpaceOnUse">
<stop stop-color="white"/>
<stop offset="1" stop-color="white" stop-opacity="0"/>
</linearGradient>
<linearGradient id="paint16_linear_14174_18766" x1="172.128" y1="984" x2="290.984" y2="709.403" gradientUnits="userSpaceOnUse">
<stop stop-color="white"/>
<stop offset="1" stop-color="white" stop-opacity="0"/>
</linearGradient>
<linearGradient id="paint17_linear_14174_18766" x1="172.128" y1="984" x2="290.984" y2="709.403" gradientUnits="userSpaceOnUse">
<stop stop-color="white"/>
<stop offset="1" stop-color="white" stop-opacity="0"/>
</linearGradient>
<linearGradient id="paint18_linear_14174_18766" x1="172.128" y1="984" x2="290.984" y2="709.403" gradientUnits="userSpaceOnUse">
<stop stop-color="white"/>
<stop offset="1" stop-color="white" stop-opacity="0"/>
</linearGradient>
<linearGradient id="paint19_linear_14174_18766" x1="172.128" y1="984" x2="290.984" y2="709.403" gradientUnits="userSpaceOnUse">
<stop stop-color="white"/>
<stop offset="1" stop-color="white" stop-opacity="0"/>
</linearGradient>
<linearGradient id="paint20_linear_14174_18766" x1="172.128" y1="984" x2="290.984" y2="709.403" gradientUnits="userSpaceOnUse">
<stop stop-color="white"/>
<stop offset="1" stop-color="white" stop-opacity="0"/>
</linearGradient>
<linearGradient id="paint21_linear_14174_18766" x1="172.128" y1="984" x2="290.984" y2="709.403" gradientUnits="userSpaceOnUse">
<stop stop-color="white"/>
<stop offset="1" stop-color="white" stop-opacity="0"/>
</linearGradient>
<linearGradient id="paint22_linear_14174_18766" x1="172.128" y1="984" x2="290.984" y2="709.403" gradientUnits="userSpaceOnUse">
<stop stop-color="white"/>
<stop offset="1" stop-color="white" stop-opacity="0"/>
</linearGradient>
<linearGradient id="paint23_linear_14174_18766" x1="172.128" y1="984" x2="290.984" y2="709.403" gradientUnits="userSpaceOnUse">
<stop stop-color="white"/>
<stop offset="1" stop-color="white" stop-opacity="0"/>
</linearGradient>
<linearGradient id="paint24_linear_14174_18766" x1="172.128" y1="984" x2="290.984" y2="709.403" gradientUnits="userSpaceOnUse">
<stop stop-color="white"/>
<stop offset="1" stop-color="white" stop-opacity="0"/>
</linearGradient>
<linearGradient id="paint25_linear_14174_18766" x1="172.128" y1="984" x2="290.984" y2="709.403" gradientUnits="userSpaceOnUse">
<stop stop-color="white"/>
<stop offset="1" stop-color="white" stop-opacity="0"/>
</linearGradient>
</defs>
</svg>
