<svg width="236" height="147" viewBox="0 0 236 147" fill="none" xmlns="http://www.w3.org/2000/svg">
<rect width="234" height="147" rx="24" fill="#3A97F7"/>
<rect x="97" y="21.5" width="40" height="40" rx="4" fill="#EFF8FF"/>
<path d="M111.858 47.6562C110.858 47.6562 109.962 47.4167 109.17 46.9375C108.378 46.4583 107.756 45.7734 107.303 44.8828C106.85 43.987 106.623 42.9219 106.623 41.6875C106.623 40.4427 106.85 39.375 107.303 38.4844C107.761 37.5885 108.384 36.901 109.17 36.4219C109.962 35.9427 110.858 35.7031 111.858 35.7031C112.472 35.7031 113.048 35.7917 113.584 35.9688C114.126 36.1458 114.61 36.4036 115.037 36.7422C115.464 37.0807 115.816 37.4948 116.092 37.9844C116.373 38.474 116.561 39.0286 116.654 39.6484H114.889C114.821 39.2682 114.693 38.9349 114.506 38.6484C114.324 38.3568 114.097 38.112 113.826 37.9141C113.561 37.7109 113.261 37.5599 112.928 37.4609C112.6 37.3568 112.251 37.3047 111.881 37.3047C111.214 37.3047 110.613 37.474 110.076 37.8125C109.545 38.1458 109.126 38.6406 108.818 39.2969C108.516 39.9479 108.365 40.7448 108.365 41.6875C108.365 42.6354 108.519 43.4349 108.826 44.0859C109.134 44.7318 109.553 45.2214 110.084 45.5547C110.615 45.888 111.212 46.0547 111.873 46.0547C112.243 46.0547 112.592 46.0052 112.92 45.9062C113.248 45.8073 113.548 45.6589 113.818 45.4609C114.089 45.263 114.316 45.0234 114.498 44.7422C114.686 44.4557 114.816 44.125 114.889 43.75H116.654C116.566 44.3281 116.386 44.8568 116.115 45.3359C115.844 45.8099 115.498 46.2214 115.076 46.5703C114.654 46.9141 114.173 47.1823 113.631 47.375C113.089 47.5625 112.498 47.6562 111.858 47.6562ZM123.127 47.6562C122.127 47.6562 121.231 47.4167 120.439 46.9375C119.648 46.4583 119.023 45.7734 118.564 44.8828C118.106 43.987 117.877 42.9219 117.877 41.6875C117.877 40.4427 118.106 39.375 118.564 38.4844C119.023 37.5885 119.648 36.901 120.439 36.4219C121.231 35.9427 122.127 35.7031 123.127 35.7031C124.137 35.7031 125.036 35.9427 125.822 36.4219C126.609 36.901 127.228 37.5885 127.682 38.4844C128.14 39.375 128.369 40.4427 128.369 41.6875C128.369 42.9271 128.14 43.9922 127.682 44.8828C127.228 45.7734 126.609 46.4583 125.822 46.9375C125.036 47.4167 124.137 47.6562 123.127 47.6562ZM123.127 46.0547C123.799 46.0547 124.398 45.888 124.924 45.5547C125.45 45.2214 125.864 44.7292 126.166 44.0781C126.473 43.4271 126.627 42.6302 126.627 41.6875C126.627 40.7396 126.473 39.9401 126.166 39.2891C125.864 38.6328 125.45 38.138 124.924 37.8047C124.398 37.4714 123.799 37.3047 123.127 37.3047C122.46 37.3047 121.861 37.4714 121.33 37.8047C120.804 38.138 120.387 38.6328 120.08 39.2891C119.773 39.9401 119.619 40.7396 119.619 41.6875C119.619 42.6302 119.773 43.4271 120.08 44.0781C120.387 44.7292 120.804 45.2214 121.33 45.5547C121.861 45.888 122.46 46.0547 123.127 46.0547Z" fill="#2F80ED"/>
<path d="M47.2628 94.6562C46.2628 94.6562 45.367 94.4167 44.5753 93.9375C43.7836 93.4583 43.1613 92.7734 42.7081 91.8828C42.255 90.987 42.0284 89.9219 42.0284 88.6875C42.0284 87.4427 42.255 86.375 42.7081 85.4844C43.1665 84.5885 43.7889 83.901 44.5753 83.4219C45.367 82.9427 46.2628 82.7031 47.2628 82.7031C47.8774 82.7031 48.4529 82.7917 48.9894 82.9688C49.531 83.1458 50.0154 83.4036 50.4425 83.7422C50.8696 84.0807 51.2211 84.4948 51.4972 84.9844C51.7784 85.474 51.9659 86.0286 52.0597 86.6484H50.2941C50.2264 86.2682 50.0988 85.9349 49.9113 85.6484C49.729 85.3568 49.5024 85.112 49.2316 84.9141C48.9659 84.7109 48.6665 84.5599 48.3331 84.4609C48.005 84.3568 47.656 84.3047 47.2863 84.3047C46.6196 84.3047 46.018 84.474 45.4816 84.8125C44.9503 85.1458 44.531 85.6406 44.2238 86.2969C43.9217 86.9479 43.7706 87.7448 43.7706 88.6875C43.7706 89.6354 43.9243 90.4349 44.2316 91.0859C44.5389 91.7318 44.9581 92.2214 45.4894 92.5547C46.0206 92.888 46.617 93.0547 47.2784 93.0547C47.6482 93.0547 47.9972 93.0052 48.3253 92.9062C48.6534 92.8073 48.9529 92.6589 49.2238 92.4609C49.4946 92.263 49.7211 92.0234 49.9034 91.7422C50.0909 91.4557 50.2211 91.125 50.2941 90.75H52.0597C51.9711 91.3281 51.7915 91.8568 51.5206 92.3359C51.2498 92.8099 50.9034 93.2214 50.4816 93.5703C50.0597 93.9141 49.5779 94.1823 49.0363 94.375C48.4946 94.5625 47.9034 94.6562 47.2628 94.6562ZM55.2197 89.3203V94.5H53.5322V82.8594H55.1963V87.2031H55.3134C55.5166 86.7292 55.8265 86.3542 56.2431 86.0781C56.665 85.7969 57.2145 85.6562 57.8916 85.6562C58.4905 85.6562 59.014 85.7786 59.4619 86.0234C59.9098 86.2682 60.2588 86.6354 60.5088 87.125C60.764 87.6146 60.8916 88.224 60.8916 88.9531V94.5H59.1884V89.1562C59.1884 88.5104 59.0218 88.0104 58.6884 87.6562C58.3603 87.3021 57.902 87.125 57.3134 87.125C56.9072 87.125 56.5478 87.2135 56.2353 87.3906C55.9228 87.5625 55.6754 87.8099 55.4931 88.1328C55.3108 88.4557 55.2197 88.8516 55.2197 89.3203ZM62.6766 94.5V85.7656H64.3641V94.5H62.6766ZM63.5281 84.4219C63.2313 84.4219 62.9786 84.3229 62.7703 84.125C62.562 83.9271 62.4578 83.6901 62.4578 83.4141C62.4578 83.1328 62.562 82.8932 62.7703 82.6953C62.9786 82.4974 63.2313 82.3984 63.5281 82.3984C63.8198 82.3984 64.0698 82.4974 64.2781 82.6953C64.4917 82.8932 64.5984 83.1328 64.5984 83.4141C64.5984 83.6901 64.4917 83.9271 64.2781 84.125C64.0698 84.3229 63.8198 84.4219 63.5281 84.4219ZM68.6803 94.6875C68.1282 94.6875 67.6282 94.5859 67.1803 94.3828C66.7324 94.1745 66.3782 93.8724 66.1178 93.4766C65.8574 93.0807 65.7272 92.599 65.7272 92.0312C65.7272 91.5365 65.8209 91.1328 66.0084 90.8203C66.2011 90.5026 66.459 90.25 66.7819 90.0625C67.1048 89.875 67.4642 89.7344 67.86 89.6406C68.2558 89.5469 68.6621 89.474 69.0788 89.4219C69.6048 89.3646 70.0293 89.3151 70.3522 89.2734C70.6751 89.2318 70.9095 89.1667 71.0553 89.0781C71.2064 88.9844 71.2819 88.8359 71.2819 88.6328V88.5938C71.2819 88.099 71.1413 87.7161 70.86 87.4453C70.584 87.1745 70.1725 87.0391 69.6256 87.0391C69.0579 87.0391 68.6074 87.1641 68.2741 87.4141C67.9459 87.6589 67.7194 87.9375 67.5944 88.25L65.9928 87.8828C66.1855 87.3516 66.4642 86.9245 66.8288 86.6016C67.1985 86.2734 67.6204 86.0339 68.0944 85.8828C68.5735 85.7318 69.0735 85.6562 69.5944 85.6562C69.9433 85.6562 70.3131 85.6979 70.7038 85.7812C71.0944 85.8594 71.4616 86.0078 71.8053 86.2266C72.1543 86.4401 72.4381 86.7474 72.6569 87.1484C72.8756 87.5495 72.985 88.0677 72.985 88.7031V94.5H71.3209V93.3047H71.2584C71.1543 93.5182 70.9902 93.7318 70.7663 93.9453C70.5475 94.1589 70.2663 94.3359 69.9225 94.4766C69.5788 94.6172 69.1647 94.6875 68.6803 94.6875ZM69.0475 93.3281C69.5215 93.3281 69.9251 93.237 70.2584 93.0547C70.5918 92.8672 70.847 92.6224 71.0241 92.3203C71.2011 92.0182 71.2897 91.6979 71.2897 91.3594V90.2266C71.2272 90.2839 71.11 90.3385 70.9381 90.3906C70.7663 90.4427 70.5709 90.487 70.3522 90.5234C70.1334 90.5599 69.9199 90.5938 69.7116 90.625C69.5032 90.651 69.3288 90.6719 69.1881 90.6875C68.86 90.7344 68.5605 90.8073 68.2897 90.9062C68.0189 91 67.8001 91.1406 67.6334 91.3281C67.472 91.5104 67.3913 91.7526 67.3913 92.0547C67.3913 92.4766 67.5475 92.7943 67.86 93.0078C68.1725 93.2214 68.5683 93.3281 69.0475 93.3281ZM74.7778 94.5V85.7656H76.395V87.2031H76.5122C76.6945 86.7188 76.9914 86.3411 77.4028 86.0703C77.8195 85.7943 78.3143 85.6562 78.8872 85.6562C79.4705 85.6562 79.9575 85.7943 80.3481 86.0703C80.744 86.3411 81.0382 86.7188 81.2309 87.2031H81.3247C81.533 86.7292 81.8638 86.3542 82.3169 86.0781C82.77 85.7969 83.3091 85.6562 83.9341 85.6562C84.7257 85.6562 85.3742 85.9062 85.8794 86.4062C86.3846 86.901 86.6372 87.6484 86.6372 88.6484V94.5H84.9341V88.8047C84.9341 88.2109 84.7726 87.7839 84.4497 87.5234C84.1268 87.2578 83.7414 87.125 83.2934 87.125C82.7414 87.125 82.3117 87.2969 82.0044 87.6406C81.7023 87.9792 81.5513 88.4089 81.5513 88.9297V94.5H79.8481V88.6953C79.8481 88.2214 79.7023 87.8411 79.4106 87.5547C79.119 87.2682 78.7361 87.125 78.2622 87.125C77.9393 87.125 77.6398 87.2109 77.3638 87.3828C77.0929 87.5495 76.8742 87.7839 76.7075 88.0859C76.546 88.3828 76.4653 88.7266 76.4653 89.1172V94.5H74.7778ZM90.9534 94.6875C90.4014 94.6875 89.9014 94.5859 89.4534 94.3828C89.0055 94.1745 88.6514 93.8724 88.3909 93.4766C88.1305 93.0807 88.0003 92.599 88.0003 92.0312C88.0003 91.5365 88.0941 91.1328 88.2816 90.8203C88.4743 90.5026 88.7321 90.25 89.055 90.0625C89.3779 89.875 89.7373 89.7344 90.1331 89.6406C90.529 89.5469 90.9352 89.474 91.3519 89.4219C91.8779 89.3646 92.3024 89.3151 92.6253 89.2734C92.9482 89.2318 93.1826 89.1667 93.3284 89.0781C93.4795 88.9844 93.555 88.8359 93.555 88.6328V88.5938C93.555 88.099 93.4144 87.7161 93.1331 87.4453C92.8571 87.1745 92.4456 87.0391 91.8988 87.0391C91.331 87.0391 90.8805 87.1641 90.5472 87.4141C90.2191 87.6589 89.9925 87.9375 89.8675 88.25L88.2659 87.8828C88.4586 87.3516 88.7373 86.9245 89.1019 86.6016C89.4717 86.2734 89.8935 86.0339 90.3675 85.8828C90.8467 85.7318 91.3467 85.6562 91.8675 85.6562C92.2165 85.6562 92.5863 85.6979 92.9769 85.7812C93.3675 85.8594 93.7347 86.0078 94.0784 86.2266C94.4274 86.4401 94.7113 86.7474 94.93 87.1484C95.1488 87.5495 95.2581 88.0677 95.2581 88.7031V94.5H93.5941V93.3047H93.5316C93.4274 93.5182 93.2633 93.7318 93.0394 93.9453C92.8206 94.1589 92.5394 94.3359 92.1956 94.4766C91.8519 94.6172 91.4378 94.6875 90.9534 94.6875ZM91.3206 93.3281C91.7946 93.3281 92.1982 93.237 92.5316 93.0547C92.8649 92.8672 93.1201 92.6224 93.2972 92.3203C93.4743 92.0182 93.5628 91.6979 93.5628 91.3594V90.2266C93.5003 90.2839 93.3831 90.3385 93.2113 90.3906C93.0394 90.4427 92.8441 90.487 92.6253 90.5234C92.4066 90.5599 92.193 90.5938 91.9847 90.625C91.7764 90.651 91.6019 90.6719 91.4613 90.6875C91.1331 90.7344 90.8336 90.8073 90.5628 90.9062C90.292 91 90.0732 91.1406 89.9066 91.3281C89.7451 91.5104 89.6644 91.7526 89.6644 92.0547C89.6644 92.4766 89.8206 92.7943 90.1331 93.0078C90.4456 93.2214 90.8415 93.3281 91.3206 93.3281ZM98.6134 91.5391L98.59 89.4688H98.8947L102.371 85.7656H104.403L100.442 89.9844H100.16L98.6134 91.5391ZM97.0509 94.5V82.8594H98.7384V94.5H97.0509ZM102.551 94.5L99.4259 90.3594L100.598 89.1641L104.645 94.5H102.551ZM107.977 94.6875C107.424 94.6875 106.924 94.5859 106.477 94.3828C106.029 94.1745 105.674 93.8724 105.414 93.4766C105.154 93.0807 105.023 92.599 105.023 92.0312C105.023 91.5365 105.117 91.1328 105.305 90.8203C105.497 90.5026 105.755 90.25 106.078 90.0625C106.401 89.875 106.76 89.7344 107.156 89.6406C107.552 89.5469 107.958 89.474 108.375 89.4219C108.901 89.3646 109.326 89.3151 109.648 89.2734C109.971 89.2318 110.206 89.1667 110.352 89.0781C110.503 88.9844 110.578 88.8359 110.578 88.6328V88.5938C110.578 88.099 110.438 87.7161 110.156 87.4453C109.88 87.1745 109.469 87.0391 108.922 87.0391C108.354 87.0391 107.904 87.1641 107.57 87.4141C107.242 87.6589 107.016 87.9375 106.891 88.25L105.289 87.8828C105.482 87.3516 105.76 86.9245 106.125 86.6016C106.495 86.2734 106.917 86.0339 107.391 85.8828C107.87 85.7318 108.37 85.6562 108.891 85.6562C109.24 85.6562 109.609 85.6979 110 85.7812C110.391 85.8594 110.758 86.0078 111.102 86.2266C111.451 86.4401 111.734 86.7474 111.953 87.1484C112.172 87.5495 112.281 88.0677 112.281 88.7031V94.5H110.617V93.3047H110.555C110.451 93.5182 110.286 93.7318 110.062 93.9453C109.844 94.1589 109.562 94.3359 109.219 94.4766C108.875 94.6172 108.461 94.6875 107.977 94.6875ZM108.344 93.3281C108.818 93.3281 109.221 93.237 109.555 93.0547C109.888 92.8672 110.143 92.6224 110.32 92.3203C110.497 92.0182 110.586 91.6979 110.586 91.3594V90.2266C110.523 90.2839 110.406 90.3385 110.234 90.3906C110.062 90.4427 109.867 90.487 109.648 90.5234C109.43 90.5599 109.216 90.5938 109.008 90.625C108.799 90.651 108.625 90.6719 108.484 90.6875C108.156 90.7344 107.857 90.8073 107.586 90.9062C107.315 91 107.096 91.1406 106.93 91.3281C106.768 91.5104 106.688 91.7526 106.688 92.0547C106.688 92.4766 106.844 92.7943 107.156 93.0078C107.469 93.2214 107.865 93.3281 108.344 93.3281ZM122.797 94.6562C121.797 94.6562 120.901 94.4167 120.109 93.9375C119.317 93.4583 118.692 92.7734 118.234 91.8828C117.776 90.987 117.547 89.9219 117.547 88.6875C117.547 87.4427 117.776 86.375 118.234 85.4844C118.692 84.5885 119.317 83.901 120.109 83.4219C120.901 82.9427 121.797 82.7031 122.797 82.7031C123.807 82.7031 124.705 82.9427 125.492 83.4219C126.278 83.901 126.898 84.5885 127.351 85.4844C127.81 86.375 128.039 87.4427 128.039 88.6875C128.039 89.9271 127.81 90.9922 127.351 91.8828C126.898 92.7734 126.278 93.4583 125.492 93.9375C124.705 94.4167 123.807 94.6562 122.797 94.6562ZM122.797 93.0547C123.468 93.0547 124.067 92.888 124.593 92.5547C125.119 92.2214 125.534 91.7292 125.836 91.0781C126.143 90.4271 126.297 89.6302 126.297 88.6875C126.297 87.7396 126.143 86.9401 125.836 86.2891C125.534 85.6328 125.119 85.138 124.593 84.8047C124.067 84.4714 123.468 84.3047 122.797 84.3047C122.13 84.3047 121.531 84.4714 121 84.8047C120.474 85.138 120.057 85.6328 119.75 86.2891C119.442 86.9401 119.289 87.7396 119.289 88.6875C119.289 89.6302 119.442 90.4271 119.75 91.0781C120.057 91.7292 120.474 92.2214 121 92.5547C121.531 92.888 122.13 93.0547 122.797 93.0547ZM131.144 91.5391L131.121 89.4688H131.425L134.902 85.7656H136.933L132.972 89.9844H132.691L131.144 91.5391ZM129.582 94.5V82.8594H131.269V94.5H129.582ZM135.082 94.5L131.957 90.3594L133.128 89.1641L137.175 94.5H135.082ZM141.374 94.6797C140.52 94.6797 139.781 94.4948 139.156 94.125C138.531 93.7552 138.049 93.2344 137.71 92.5625C137.377 91.8854 137.21 91.0964 137.21 90.1953C137.21 89.2995 137.374 88.5104 137.702 87.8281C138.036 87.1458 138.502 86.6146 139.101 86.2344C139.705 85.849 140.413 85.6562 141.226 85.6562C141.721 85.6562 142.2 85.737 142.663 85.8984C143.127 86.0599 143.544 86.3151 143.913 86.6641C144.283 87.013 144.575 87.4661 144.788 88.0234C145.007 88.5807 145.117 89.2526 145.117 90.0391V90.6484H138.171V89.375H144.242L143.452 89.7969C143.452 89.2604 143.369 88.7865 143.202 88.375C143.036 87.9635 142.786 87.6432 142.452 87.4141C142.124 87.1797 141.716 87.0625 141.226 87.0625C140.736 87.0625 140.317 87.1797 139.968 87.4141C139.624 87.6484 139.361 87.9583 139.179 88.3438C138.997 88.7292 138.906 89.151 138.906 89.6094V90.4766C138.906 91.0755 139.01 91.5833 139.218 92C139.426 92.4167 139.716 92.7344 140.085 92.9531C140.46 93.1719 140.895 93.2812 141.39 93.2812C141.713 93.2812 142.005 93.2344 142.265 93.1406C142.531 93.0469 142.76 92.9062 142.952 92.7188C143.145 92.5312 143.291 92.2995 143.39 92.0234L144.999 92.3281C144.869 92.7969 144.64 93.2083 144.312 93.5625C143.984 93.9167 143.57 94.1927 143.07 94.3906C142.575 94.5833 142.01 94.6797 141.374 94.6797ZM148.027 91.5391L148.003 89.4688H148.308L151.784 85.7656H153.816L149.855 89.9844H149.573L148.027 91.5391ZM146.464 94.5V82.8594H148.152V94.5H146.464ZM151.964 94.5L148.839 90.3594L150.011 89.1641L154.058 94.5H151.964ZM158.257 94.6797C157.403 94.6797 156.663 94.4948 156.038 94.125C155.413 93.7552 154.931 93.2344 154.593 92.5625C154.259 91.8854 154.093 91.0964 154.093 90.1953C154.093 89.2995 154.257 88.5104 154.585 87.8281C154.918 87.1458 155.384 86.6146 155.983 86.2344C156.588 85.849 157.296 85.6562 158.108 85.6562C158.603 85.6562 159.082 85.737 159.546 85.8984C160.009 86.0599 160.426 86.3151 160.796 86.6641C161.166 87.013 161.457 87.4661 161.671 88.0234C161.89 88.5807 161.999 89.2526 161.999 90.0391V90.6484H155.054V89.375H161.124L160.335 89.7969C160.335 89.2604 160.252 88.7865 160.085 88.375C159.918 87.9635 159.668 87.6432 159.335 87.4141C159.007 87.1797 158.598 87.0625 158.108 87.0625C157.619 87.0625 157.2 87.1797 156.851 87.4141C156.507 87.6484 156.244 87.9583 156.062 88.3438C155.879 88.7292 155.788 89.151 155.788 89.6094V90.4766C155.788 91.0755 155.892 91.5833 156.101 92C156.309 92.4167 156.598 92.7344 156.968 92.9531C157.343 93.1719 157.778 93.2812 158.273 93.2812C158.595 93.2812 158.887 93.2344 159.148 93.1406C159.413 93.0469 159.642 92.9062 159.835 92.7188C160.028 92.5312 160.174 92.2995 160.273 92.0234L161.882 92.3281C161.752 92.7969 161.523 93.2083 161.194 93.5625C160.866 93.9167 160.452 94.1927 159.952 94.3906C159.457 94.5833 158.892 94.6797 158.257 94.6797Z" fill="white"/>
<path d="M190.023 86.648L184.398 92.273C184.346 92.3253 184.284 92.3668 184.215 92.3951C184.147 92.4234 184.074 92.438 184 92.438C183.926 92.438 183.853 92.4234 183.785 92.3951C183.716 92.3668 183.654 92.3253 183.602 92.273L177.977 86.648C177.871 86.5425 177.812 86.3993 177.812 86.2501C177.812 86.1008 177.871 85.9576 177.977 85.8521C178.083 85.7466 178.226 85.6873 178.375 85.6873C178.524 85.6873 178.667 85.7466 178.773 85.8521L184 91.0798L189.227 85.8521C189.279 85.7998 189.341 85.7584 189.41 85.7301C189.478 85.7018 189.551 85.6873 189.625 85.6873C189.699 85.6873 189.772 85.7018 189.84 85.7301C189.909 85.7584 189.971 85.7998 190.023 85.8521C190.075 85.9044 190.117 85.9664 190.145 86.0347C190.173 86.103 190.188 86.1762 190.188 86.2501C190.188 86.324 190.173 86.3972 190.145 86.4654C190.117 86.5337 190.075 86.5958 190.023 86.648Z" fill="white"/>
<path d="M36.865 120.688C36.0525 120.688 35.3494 120.495 34.7556 120.109C34.1671 119.719 33.7114 119.185 33.3884 118.508C33.0707 117.831 32.9119 117.057 32.9119 116.188C32.9119 115.297 33.0759 114.513 33.4041 113.836C33.7322 113.154 34.1905 112.62 34.7791 112.234C35.3728 111.849 36.0629 111.656 36.8494 111.656C37.464 111.656 38.016 111.771 38.5056 112C39.0004 112.224 39.4041 112.542 39.7166 112.953C40.0343 113.365 40.2296 113.844 40.3025 114.391H38.9587C38.891 114.125 38.7686 113.875 38.5916 113.641C38.4145 113.406 38.1801 113.219 37.8884 113.078C37.602 112.932 37.2608 112.859 36.865 112.859C36.3442 112.859 35.8884 112.995 35.4978 113.266C35.1072 113.536 34.8025 113.919 34.5837 114.414C34.365 114.904 34.2556 115.479 34.2556 116.141C34.2556 116.812 34.3624 117.401 34.5759 117.906C34.7895 118.406 35.0916 118.794 35.4822 119.07C35.878 119.346 36.339 119.484 36.865 119.484C37.391 119.484 37.8416 119.349 38.2166 119.078C38.5916 118.802 38.839 118.427 38.9587 117.953H40.3025C40.2296 118.469 40.0421 118.932 39.74 119.344C39.4431 119.755 39.0499 120.083 38.5603 120.328C38.0759 120.568 37.5108 120.688 36.865 120.688ZM43.0562 115.25V120.5H41.7281V108.859H43.0562V113.141H43.1812C43.3844 112.688 43.6891 112.328 44.0953 112.062C44.5068 111.792 45.0562 111.656 45.7437 111.656C46.3375 111.656 46.8583 111.776 47.3062 112.016C47.7542 112.25 48.1031 112.612 48.3531 113.102C48.6031 113.586 48.7281 114.203 48.7281 114.953V120.5H47.3844V115.047C47.3844 114.349 47.2047 113.81 46.8453 113.43C46.4859 113.049 45.9885 112.859 45.3531 112.859C44.9104 112.859 44.5172 112.953 44.1734 113.141C43.8297 113.328 43.5562 113.599 43.3531 113.953C43.1552 114.307 43.0562 114.74 43.0562 115.25ZM50.6069 120.5V111.766H51.935V120.5H50.6069ZM51.2787 110.312C51.0183 110.312 50.7944 110.224 50.6069 110.047C50.4194 109.87 50.3256 109.656 50.3256 109.406C50.3256 109.156 50.4194 108.943 50.6069 108.766C50.7944 108.589 51.0183 108.5 51.2787 108.5C51.5392 108.5 51.7631 108.589 51.9506 108.766C52.1381 108.943 52.2319 109.156 52.2319 109.406C52.2319 109.656 52.1381 109.87 51.9506 110.047C51.7631 110.224 51.5392 110.312 51.2787 110.312ZM56.3762 120.703C55.8242 120.703 55.3216 120.599 54.8684 120.391C54.4153 120.177 54.0559 119.87 53.7903 119.469C53.5247 119.068 53.3919 118.583 53.3919 118.016C53.3919 117.516 53.4908 117.112 53.6887 116.805C53.8867 116.492 54.1497 116.247 54.4778 116.07C54.8111 115.888 55.1757 115.753 55.5716 115.664C55.9726 115.576 56.3762 115.505 56.7825 115.453C57.3137 115.385 57.7434 115.333 58.0716 115.297C58.4049 115.26 58.6471 115.198 58.7981 115.109C58.9544 115.021 59.0325 114.87 59.0325 114.656V114.609C59.0325 114.052 58.8789 113.62 58.5716 113.312C58.2695 113 57.8085 112.844 57.1887 112.844C56.5533 112.844 56.0533 112.984 55.6887 113.266C55.3242 113.542 55.069 113.839 54.9231 114.156L53.6419 113.703C53.871 113.172 54.1757 112.758 54.5559 112.461C54.9414 112.164 55.358 111.956 55.8059 111.836C56.2591 111.716 56.7044 111.656 57.1419 111.656C57.4231 111.656 57.746 111.69 58.1106 111.758C58.4752 111.82 58.8294 111.956 59.1731 112.164C59.5221 112.367 59.8085 112.677 60.0325 113.094C60.2617 113.505 60.3762 114.057 60.3762 114.75V120.5H59.0325V119.312H58.97C58.8815 119.5 58.7304 119.703 58.5169 119.922C58.3033 120.135 58.0195 120.32 57.6653 120.477C57.3164 120.628 56.8867 120.703 56.3762 120.703ZM56.5794 119.5C57.1106 119.5 57.5585 119.396 57.9231 119.188C58.2877 118.979 58.5637 118.711 58.7512 118.383C58.9387 118.049 59.0325 117.703 59.0325 117.344V116.109C58.9752 116.177 58.8502 116.24 58.6575 116.297C58.47 116.349 58.2512 116.396 58.0012 116.438C57.7565 116.479 57.5169 116.516 57.2825 116.547C57.0481 116.573 56.8606 116.594 56.72 116.609C56.371 116.656 56.0455 116.732 55.7434 116.836C55.4414 116.935 55.1966 117.083 55.0091 117.281C54.8268 117.479 54.7356 117.75 54.7356 118.094C54.7356 118.557 54.9075 118.909 55.2512 119.148C55.6002 119.383 56.0429 119.5 56.5794 119.5ZM62.255 120.5V111.766H63.5362V113.141H63.6612C63.8435 112.672 64.1378 112.307 64.5441 112.047C64.9503 111.786 65.4373 111.656 66.005 111.656C66.5779 111.656 67.0545 111.786 67.4347 112.047C67.8201 112.307 68.1196 112.672 68.3331 113.141H68.4269C68.656 112.688 68.992 112.328 69.4347 112.062C69.8826 111.792 70.4165 111.656 71.0362 111.656C71.8175 111.656 72.4581 111.901 72.9581 112.391C73.4581 112.875 73.7081 113.63 73.7081 114.656V120.5H72.3644V114.656C72.3644 114.01 72.1873 113.549 71.8331 113.273C71.479 112.997 71.0623 112.859 70.5831 112.859C69.9737 112.859 69.4998 113.047 69.1612 113.422C68.8279 113.792 68.6612 114.255 68.6612 114.812V120.5H67.2862V114.516C67.2862 114.021 67.1274 113.622 66.8097 113.32C66.492 113.013 66.0779 112.859 65.5675 112.859C65.2185 112.859 64.893 112.953 64.5909 113.141C64.2889 113.328 64.0441 113.586 63.8566 113.914C63.6743 114.242 63.5831 114.62 63.5831 115.047V120.5H62.255ZM78.1494 120.703C77.5973 120.703 77.0947 120.599 76.6416 120.391C76.1884 120.177 75.8291 119.87 75.5634 119.469C75.2978 119.068 75.165 118.583 75.165 118.016C75.165 117.516 75.264 117.112 75.4619 116.805C75.6598 116.492 75.9228 116.247 76.2509 116.07C76.5843 115.888 76.9489 115.753 77.3447 115.664C77.7457 115.576 78.1494 115.505 78.5556 115.453C79.0869 115.385 79.5166 115.333 79.8447 115.297C80.178 115.26 80.4202 115.198 80.5712 115.109C80.7275 115.021 80.8056 114.87 80.8056 114.656V114.609C80.8056 114.052 80.652 113.62 80.3447 113.312C80.0426 113 79.5817 112.844 78.9619 112.844C78.3265 112.844 77.8265 112.984 77.4619 113.266C77.0973 113.542 76.8421 113.839 76.6962 114.156L75.415 113.703C75.6442 113.172 75.9489 112.758 76.3291 112.461C76.7145 112.164 77.1311 111.956 77.5791 111.836C78.0322 111.716 78.4775 111.656 78.915 111.656C79.1962 111.656 79.5192 111.69 79.8837 111.758C80.2483 111.82 80.6025 111.956 80.9462 112.164C81.2952 112.367 81.5817 112.677 81.8056 113.094C82.0348 113.505 82.1494 114.057 82.1494 114.75V120.5H80.8056V119.312H80.7431C80.6546 119.5 80.5035 119.703 80.29 119.922C80.0765 120.135 79.7926 120.32 79.4384 120.477C79.0895 120.628 78.6598 120.703 78.1494 120.703ZM78.3525 119.5C78.8837 119.5 79.3317 119.396 79.6962 119.188C80.0608 118.979 80.3369 118.711 80.5244 118.383C80.7119 118.049 80.8056 117.703 80.8056 117.344V116.109C80.7483 116.177 80.6233 116.24 80.4306 116.297C80.2431 116.349 80.0244 116.396 79.7744 116.438C79.5296 116.479 79.29 116.516 79.0556 116.547C78.8212 116.573 78.6337 116.594 78.4931 116.609C78.1442 116.656 77.8186 116.732 77.5166 116.836C77.2145 116.935 76.9697 117.083 76.7822 117.281C76.5999 117.479 76.5087 117.75 76.5087 118.094C76.5087 118.557 76.6806 118.909 77.0244 119.148C77.3733 119.383 77.816 119.5 78.3525 119.5ZM85.2781 117.312L85.2469 115.656H85.5281L89.3406 111.766H90.9969L86.9344 115.891H86.8094L85.2781 117.312ZM84.0281 120.5V108.859H85.3562V120.5H84.0281ZM89.5594 120.5L86.1531 116.188L87.1062 115.25L91.2781 120.5H89.5594ZM94.7038 120.703C94.1517 120.703 93.6491 120.599 93.1959 120.391C92.7428 120.177 92.3834 119.87 92.1178 119.469C91.8522 119.068 91.7194 118.583 91.7194 118.016C91.7194 117.516 91.8183 117.112 92.0163 116.805C92.2142 116.492 92.4772 116.247 92.8053 116.07C93.1386 115.888 93.5032 115.753 93.8991 115.664C94.3001 115.576 94.7038 115.505 95.11 115.453C95.6413 115.385 96.0709 115.333 96.3991 115.297C96.7324 115.26 96.9746 115.198 97.1256 115.109C97.2819 115.021 97.36 114.87 97.36 114.656V114.609C97.36 114.052 97.2064 113.62 96.8991 113.312C96.597 113 96.136 112.844 95.5163 112.844C94.8808 112.844 94.3808 112.984 94.0163 113.266C93.6517 113.542 93.3965 113.839 93.2506 114.156L91.9694 113.703C92.1985 113.172 92.5032 112.758 92.8834 112.461C93.2689 112.164 93.6855 111.956 94.1334 111.836C94.5866 111.716 95.0319 111.656 95.4694 111.656C95.7506 111.656 96.0735 111.69 96.4381 111.758C96.8027 111.82 97.1569 111.956 97.5006 112.164C97.8496 112.367 98.136 112.677 98.36 113.094C98.5892 113.505 98.7038 114.057 98.7038 114.75V120.5H97.36V119.312H97.2975C97.209 119.5 97.0579 119.703 96.8444 119.922C96.6308 120.135 96.347 120.32 95.9928 120.477C95.6439 120.628 95.2142 120.703 94.7038 120.703ZM94.9069 119.5C95.4381 119.5 95.886 119.396 96.2506 119.188C96.6152 118.979 96.8913 118.711 97.0788 118.383C97.2663 118.049 97.36 117.703 97.36 117.344V116.109C97.3027 116.177 97.1777 116.24 96.985 116.297C96.7975 116.349 96.5788 116.396 96.3288 116.438C96.084 116.479 95.8444 116.516 95.61 116.547C95.3756 116.573 95.1881 116.594 95.0475 116.609C94.6985 116.656 94.373 116.732 94.0709 116.836C93.7689 116.935 93.5241 117.083 93.3366 117.281C93.1543 117.479 93.0631 117.75 93.0631 118.094C93.0631 118.557 93.235 118.909 93.5788 119.148C93.9277 119.383 94.3704 119.5 94.9069 119.5ZM104.114 120.688C103.327 120.688 102.637 120.5 102.043 120.125C101.45 119.75 100.986 119.224 100.653 118.547C100.325 117.87 100.161 117.083 100.161 116.188C100.161 115.276 100.325 114.482 100.653 113.805C100.986 113.122 101.45 112.594 102.043 112.219C102.637 111.844 103.327 111.656 104.114 111.656C104.905 111.656 105.598 111.844 106.192 112.219C106.786 112.594 107.249 113.122 107.582 113.805C107.916 114.482 108.082 115.276 108.082 116.188C108.082 117.083 107.916 117.87 107.582 118.547C107.249 119.224 106.786 119.75 106.192 120.125C105.598 120.5 104.905 120.688 104.114 120.688ZM104.114 119.484C104.718 119.484 105.213 119.331 105.598 119.023C105.984 118.716 106.27 118.312 106.457 117.812C106.645 117.307 106.739 116.766 106.739 116.188C106.739 115.599 106.645 115.052 106.457 114.547C106.27 114.042 105.984 113.635 105.598 113.328C105.213 113.016 104.718 112.859 104.114 112.859C103.52 112.859 103.03 113.016 102.645 113.328C102.26 113.635 101.973 114.042 101.786 114.547C101.598 115.052 101.504 115.599 101.504 116.188C101.504 116.766 101.598 117.307 101.786 117.812C101.973 118.312 102.26 118.716 102.645 119.023C103.03 119.331 103.52 119.484 104.114 119.484ZM110.789 117.312L110.758 115.656H111.039L114.852 111.766H116.508L112.446 115.891H112.321L110.789 117.312ZM109.539 120.5V108.859H110.868V120.5H109.539ZM115.071 120.5L111.664 116.188L112.618 115.25L116.789 120.5H115.071ZM120.949 120.688C120.111 120.688 119.384 120.5 118.77 120.125C118.16 119.75 117.692 119.227 117.363 118.555C117.035 117.878 116.871 117.094 116.871 116.203C116.871 115.307 117.033 114.518 117.356 113.836C117.679 113.154 118.132 112.62 118.715 112.234C119.304 111.849 119.991 111.656 120.777 111.656C121.231 111.656 121.681 111.732 122.129 111.883C122.577 112.034 122.983 112.279 123.348 112.617C123.718 112.956 124.012 113.404 124.231 113.961C124.449 114.518 124.559 115.203 124.559 116.016V116.594H117.824V115.438H123.832L123.215 115.875C123.215 115.292 123.124 114.773 122.942 114.32C122.759 113.867 122.486 113.51 122.121 113.25C121.762 112.99 121.314 112.859 120.777 112.859C120.241 112.859 119.78 112.992 119.395 113.258C119.014 113.518 118.723 113.859 118.52 114.281C118.317 114.703 118.215 115.156 118.215 115.641V116.406C118.215 117.068 118.33 117.628 118.559 118.086C118.788 118.544 119.108 118.893 119.52 119.133C119.931 119.367 120.408 119.484 120.949 119.484C121.298 119.484 121.616 119.435 121.902 119.336C122.189 119.232 122.436 119.078 122.645 118.875C122.853 118.667 123.012 118.411 123.121 118.109L124.418 118.484C124.283 118.922 124.054 119.307 123.731 119.641C123.413 119.969 123.017 120.227 122.543 120.414C122.069 120.596 121.538 120.688 120.949 120.688ZM127.234 117.312L127.203 115.656H127.484L131.297 111.766H132.953L128.891 115.891H128.766L127.234 117.312ZM125.984 120.5V108.859H127.312V120.5H125.984ZM131.516 120.5L128.109 116.188L129.062 115.25L133.234 120.5H131.516ZM137.394 120.688C136.556 120.688 135.829 120.5 135.215 120.125C134.605 119.75 134.137 119.227 133.808 118.555C133.48 117.878 133.316 117.094 133.316 116.203C133.316 115.307 133.478 114.518 133.801 113.836C134.124 113.154 134.577 112.62 135.16 112.234C135.749 111.849 136.436 111.656 137.222 111.656C137.676 111.656 138.126 111.732 138.574 111.883C139.022 112.034 139.428 112.279 139.793 112.617C140.163 112.956 140.457 113.404 140.676 113.961C140.894 114.518 141.004 115.203 141.004 116.016V116.594H134.269V115.438H140.277L139.66 115.875C139.66 115.292 139.569 114.773 139.387 114.32C139.204 113.867 138.931 113.51 138.566 113.25C138.207 112.99 137.759 112.859 137.222 112.859C136.686 112.859 136.225 112.992 135.84 113.258C135.459 113.518 135.168 113.859 134.965 114.281C134.762 114.703 134.66 115.156 134.66 115.641V116.406C134.66 117.068 134.775 117.628 135.004 118.086C135.233 118.544 135.553 118.893 135.965 119.133C136.376 119.367 136.853 119.484 137.394 119.484C137.743 119.484 138.061 119.435 138.347 119.336C138.634 119.232 138.881 119.078 139.09 118.875C139.298 118.667 139.457 118.411 139.566 118.109L140.863 118.484C140.728 118.922 140.499 119.307 140.176 119.641C139.858 119.969 139.462 120.227 138.988 120.414C138.514 120.596 137.983 120.688 137.394 120.688ZM142.398 120.5V119.484L146.242 115.266C146.69 114.776 147.057 114.349 147.343 113.984C147.635 113.62 147.851 113.276 147.992 112.953C148.138 112.63 148.211 112.292 148.211 111.938C148.211 111.526 148.112 111.172 147.914 110.875C147.721 110.573 147.458 110.341 147.125 110.18C146.791 110.018 146.414 109.938 145.992 109.938C145.544 109.938 145.153 110.029 144.82 110.211C144.492 110.393 144.237 110.651 144.054 110.984C143.877 111.312 143.789 111.698 143.789 112.141H142.445C142.445 111.458 142.601 110.859 142.914 110.344C143.231 109.828 143.661 109.427 144.203 109.141C144.75 108.849 145.362 108.703 146.039 108.703C146.721 108.703 147.325 108.849 147.851 109.141C148.377 109.427 148.789 109.815 149.086 110.305C149.388 110.789 149.539 111.333 149.539 111.938C149.539 112.365 149.461 112.781 149.304 113.188C149.153 113.589 148.888 114.039 148.508 114.539C148.133 115.039 147.612 115.646 146.945 116.359L144.336 119.156V119.25H149.742V120.5H142.398ZM155.136 108.703C155.615 108.708 156.092 108.799 156.566 108.977C157.045 109.154 157.483 109.448 157.878 109.859C158.274 110.271 158.589 110.831 158.824 111.539C159.063 112.247 159.183 113.135 159.183 114.203C159.183 115.24 159.087 116.159 158.894 116.961C158.701 117.758 158.42 118.432 158.05 118.984C157.686 119.531 157.243 119.948 156.722 120.234C156.201 120.516 155.615 120.656 154.964 120.656C154.313 120.656 153.73 120.526 153.214 120.266C152.704 120.005 152.287 119.643 151.964 119.18C151.641 118.716 151.433 118.177 151.339 117.562H152.73C152.855 118.099 153.105 118.542 153.48 118.891C153.855 119.234 154.35 119.406 154.964 119.406C155.86 119.406 156.566 119.016 157.082 118.234C157.602 117.448 157.865 116.339 157.871 114.906H157.777C157.563 115.224 157.311 115.5 157.019 115.734C156.727 115.964 156.404 116.141 156.05 116.266C155.696 116.391 155.319 116.453 154.917 116.453C154.251 116.453 153.639 116.289 153.082 115.961C152.524 115.628 152.079 115.172 151.746 114.594C151.417 114.01 151.251 113.344 151.246 112.594C151.251 111.88 151.412 111.229 151.73 110.641C152.053 110.047 152.503 109.573 153.082 109.219C153.665 108.865 154.35 108.693 155.136 108.703ZM155.136 109.953C154.662 109.953 154.233 110.073 153.847 110.312C153.467 110.547 153.167 110.865 152.949 111.266C152.73 111.661 152.621 112.104 152.621 112.594C152.621 113.078 152.725 113.518 152.933 113.914C153.147 114.31 153.441 114.625 153.816 114.859C154.191 115.089 154.615 115.203 155.089 115.203C155.569 115.203 156.001 115.081 156.386 114.836C156.777 114.586 157.087 114.26 157.316 113.859C157.55 113.458 157.667 113.026 157.667 112.562C157.667 112.109 157.558 111.685 157.339 111.289C157.121 110.888 156.821 110.565 156.441 110.32C156.061 110.076 155.626 109.953 155.136 109.953ZM164.546 120.656C163.692 120.656 162.963 120.422 162.359 119.953C161.755 119.484 161.294 118.807 160.976 117.922C160.658 117.031 160.499 115.953 160.499 114.688C160.499 113.427 160.658 112.352 160.976 111.461C161.299 110.565 161.762 109.883 162.367 109.414C162.971 108.94 163.697 108.703 164.546 108.703C165.395 108.703 166.122 108.94 166.726 109.414C167.33 109.883 167.791 110.565 168.109 111.461C168.432 112.352 168.593 113.427 168.593 114.688C168.593 115.953 168.434 117.031 168.117 117.922C167.799 118.807 167.338 119.484 166.734 119.953C166.135 120.422 165.406 120.656 164.546 120.656ZM164.546 119.422C165.124 119.422 165.614 119.237 166.015 118.867C166.416 118.492 166.721 117.951 166.929 117.242C167.143 116.534 167.249 115.682 167.249 114.688C167.249 113.688 167.143 112.833 166.929 112.125C166.721 111.417 166.416 110.875 166.015 110.5C165.614 110.125 165.124 109.938 164.546 109.938C163.682 109.938 163.015 110.354 162.546 111.188C162.077 112.021 161.843 113.188 161.843 114.688C161.843 115.682 161.947 116.534 162.156 117.242C162.369 117.951 162.676 118.492 163.077 118.867C163.484 119.237 163.973 119.422 164.546 119.422ZM173.8 120.656C173.133 120.656 172.532 120.526 171.995 120.266C171.464 120 171.037 119.635 170.714 119.172C170.391 118.708 170.217 118.182 170.191 117.594H171.55C171.602 118.115 171.839 118.547 172.261 118.891C172.688 119.234 173.201 119.406 173.8 119.406C174.279 119.406 174.704 119.294 175.073 119.07C175.443 118.846 175.735 118.539 175.948 118.148C176.162 117.758 176.269 117.312 176.269 116.812C176.269 116.307 176.157 115.854 175.933 115.453C175.714 115.052 175.412 114.737 175.027 114.508C174.641 114.273 174.201 114.156 173.706 114.156C173.347 114.156 172.98 114.214 172.605 114.328C172.235 114.438 171.93 114.578 171.691 114.75L170.362 114.594L171.066 108.859H177.112V110.109H172.253L171.847 113.547H171.909C172.149 113.354 172.448 113.198 172.808 113.078C173.167 112.953 173.545 112.891 173.941 112.891C174.654 112.891 175.29 113.06 175.847 113.398C176.404 113.737 176.842 114.201 177.159 114.789C177.482 115.372 177.644 116.042 177.644 116.797C177.644 117.536 177.477 118.198 177.144 118.781C176.81 119.365 176.355 119.823 175.777 120.156C175.198 120.49 174.54 120.656 173.8 120.656ZM179.843 120.594C179.562 120.594 179.319 120.495 179.116 120.297C178.918 120.094 178.819 119.852 178.819 119.57C178.819 119.289 178.918 119.049 179.116 118.852C179.319 118.648 179.562 118.547 179.843 118.547C180.124 118.547 180.364 118.648 180.562 118.852C180.765 119.049 180.866 119.289 180.866 119.57C180.866 119.852 180.765 120.094 180.562 120.297C180.364 120.495 180.124 120.594 179.843 120.594ZM183.8 120.594C183.518 120.594 183.276 120.495 183.073 120.297C182.875 120.094 182.776 119.852 182.776 119.57C182.776 119.289 182.875 119.049 183.073 118.852C183.276 118.648 183.518 118.547 183.8 118.547C184.081 118.547 184.321 118.648 184.518 118.852C184.722 119.049 184.823 119.289 184.823 119.57C184.823 119.852 184.722 120.094 184.518 120.297C184.321 120.495 184.081 120.594 183.8 120.594ZM187.757 120.594C187.475 120.594 187.233 120.495 187.03 120.297C186.832 120.094 186.733 119.852 186.733 119.57C186.733 119.289 186.832 119.049 187.03 118.852C187.233 118.648 187.475 118.547 187.757 118.547C188.038 118.547 188.277 118.648 188.475 118.852C188.678 119.049 188.78 119.289 188.78 119.57C188.78 119.852 188.678 120.094 188.475 120.297C188.277 120.495 188.038 120.594 187.757 120.594ZM191.713 120.594C191.432 120.594 191.19 120.495 190.987 120.297C190.789 120.094 190.69 119.852 190.69 119.57C190.69 119.289 190.789 119.049 190.987 118.852C191.19 118.648 191.432 118.547 191.713 118.547C191.995 118.547 192.234 118.648 192.432 118.852C192.635 119.049 192.737 119.289 192.737 119.57C192.737 119.852 192.635 120.094 192.432 120.297C192.234 120.495 191.995 120.594 191.713 120.594ZM195.67 120.594C195.389 120.594 195.147 120.495 194.944 120.297C194.746 120.094 194.647 119.852 194.647 119.57C194.647 119.289 194.746 119.049 194.944 118.852C195.147 118.648 195.389 118.547 195.67 118.547C195.952 118.547 196.191 118.648 196.389 118.852C196.592 119.049 196.694 119.289 196.694 119.57C196.694 119.852 196.592 120.094 196.389 120.297C196.191 120.495 195.952 120.594 195.67 120.594ZM199.627 120.594C199.346 120.594 199.104 120.495 198.901 120.297C198.703 120.094 198.604 119.852 198.604 119.57C198.604 119.289 198.703 119.049 198.901 118.852C199.104 118.648 199.346 118.547 199.627 118.547C199.908 118.547 200.148 118.648 200.346 118.852C200.549 119.049 200.651 119.289 200.651 119.57C200.651 119.852 200.549 120.094 200.346 120.297C200.148 120.495 199.908 120.594 199.627 120.594Z" fill="#E0E7FF"/>
</svg>
