<svg width="153" height="54" viewBox="0 0 153 54" fill="none" xmlns="http://www.w3.org/2000/svg">
<path d="M59.7533 3.81818H62.0104L65.0331 11.196H65.1524L68.1752 3.81818H70.4323V14H68.6624V7.00497H68.5679L65.754 13.9702H64.4316L61.6176 6.99006H61.5232V14H59.7533V3.81818ZM75.6922 14.1491C74.9465 14.1491 74.3002 13.9851 73.7533 13.657C73.2064 13.3288 72.7822 12.8698 72.4806 12.2798C72.1823 11.6899 72.0331 11.0005 72.0331 10.2116C72.0331 9.42282 72.1823 8.73177 72.4806 8.13849C72.7822 7.54522 73.2064 7.08452 73.7533 6.75639C74.3002 6.42827 74.9465 6.2642 75.6922 6.2642C76.4379 6.2642 77.0843 6.42827 77.6311 6.75639C78.178 7.08452 78.6006 7.54522 78.8989 8.13849C79.2005 8.73177 79.3513 9.42282 79.3513 10.2116C79.3513 11.0005 79.2005 11.6899 78.8989 12.2798C78.6006 12.8698 78.178 13.3288 77.6311 13.657C77.0843 13.9851 76.4379 14.1491 75.6922 14.1491ZM75.7021 12.7074C76.1065 12.7074 76.4446 12.5964 76.7164 12.3743C76.9881 12.1489 77.1903 11.8473 77.3229 11.4695C77.4588 11.0916 77.5267 10.6707 77.5267 10.2067C77.5267 9.73935 77.4588 9.31676 77.3229 8.93892C77.1903 8.55777 76.9881 8.2545 76.7164 8.02912C76.4446 7.80374 76.1065 7.69105 75.7021 7.69105C75.2878 7.69105 74.9432 7.80374 74.6681 8.02912C74.3963 8.2545 74.1924 8.55777 74.0566 8.93892C73.924 9.31676 73.8577 9.73935 73.8577 10.2067C73.8577 10.6707 73.924 11.0916 74.0566 11.4695C74.1924 11.8473 74.3963 12.1489 74.6681 12.3743C74.9432 12.5964 75.2878 12.7074 75.7021 12.7074ZM86.9143 8.3821L85.2737 8.56108C85.2273 8.39536 85.1461 8.23958 85.0301 8.09375C84.9174 7.94792 84.7649 7.83026 84.5727 7.74077C84.3805 7.65128 84.1452 7.60653 83.8667 7.60653C83.4922 7.60653 83.1773 7.68774 82.9221 7.85014C82.6702 8.01255 82.546 8.22301 82.5493 8.48153C82.546 8.7036 82.6272 8.88423 82.7929 9.02344C82.9619 9.16264 83.2403 9.27699 83.6281 9.36648L84.9307 9.64489C85.6532 9.80066 86.1901 10.0476 86.5415 10.3857C86.8961 10.7237 87.0751 11.1662 87.0784 11.7131C87.0751 12.1937 86.9342 12.6179 86.6558 12.9858C86.3807 13.3504 85.9979 13.6354 85.5074 13.8409C85.0168 14.0464 84.4534 14.1491 83.817 14.1491C82.8824 14.1491 82.13 13.9536 81.5599 13.5625C80.9898 13.1681 80.6501 12.6196 80.5407 11.9169L82.2957 11.7479C82.3753 12.0926 82.5443 12.3527 82.8028 12.5284C83.0613 12.7041 83.3978 12.7919 83.8121 12.7919C84.2396 12.7919 84.5827 12.7041 84.8412 12.5284C85.103 12.3527 85.2339 12.1357 85.2339 11.8771C85.2339 11.6584 85.1494 11.4777 84.9804 11.3352C84.8147 11.1927 84.5561 11.0833 84.2048 11.0071L82.9023 10.7337C82.1698 10.5812 81.6279 10.3243 81.2765 9.96307C80.9252 9.59848 80.7512 9.13778 80.7545 8.58097C80.7512 8.11032 80.8788 7.70265 81.1373 7.35795C81.3992 7.00994 81.7621 6.74148 82.2261 6.55256C82.6934 6.36032 83.232 6.2642 83.8419 6.2642C84.7368 6.2642 85.4411 6.45478 85.9548 6.83594C86.4719 7.21709 86.7917 7.73248 86.9143 8.3821ZM92.3756 6.36364V7.75568H87.9857V6.36364H92.3756ZM89.0695 4.53409H90.8692V11.7031C90.8692 11.9451 90.9057 12.1307 90.9786 12.2599C91.0548 12.3859 91.1543 12.4721 91.2769 12.5185C91.3995 12.5649 91.5354 12.5881 91.6846 12.5881C91.7973 12.5881 91.9 12.5798 91.9928 12.5632C92.0889 12.5466 92.1618 12.5317 92.2116 12.5185L92.5148 13.9254C92.4187 13.9586 92.2812 13.995 92.1022 14.0348C91.9265 14.0746 91.7111 14.0978 91.4559 14.1044C91.0051 14.1177 90.5991 14.0497 90.2378 13.9006C89.8766 13.7481 89.5899 13.5128 89.3778 13.1946C89.1689 12.8764 89.0662 12.4787 89.0695 12.0014V4.53409ZM97.3534 16.8636V6.36364H99.1233V7.62642H99.2277C99.3205 7.44081 99.4514 7.24361 99.6205 7.0348C99.7895 6.82268 100.018 6.64205 100.307 6.4929C100.595 6.34044 100.963 6.2642 101.41 6.2642C102 6.2642 102.532 6.41501 103.006 6.71662C103.483 7.01491 103.861 7.45739 104.14 8.04403C104.421 8.62737 104.562 9.34328 104.562 10.1918C104.562 11.0303 104.425 11.7429 104.15 12.3295C103.874 12.9162 103.5 13.3636 103.026 13.6719C102.552 13.9801 102.015 14.1342 101.415 14.1342C100.978 14.1342 100.615 14.0613 100.326 13.9155C100.038 13.7696 99.8061 13.594 99.6304 13.3885C99.4581 13.1797 99.3238 12.9825 99.2277 12.7969H99.1531V16.8636H97.3534ZM99.1183 10.1818C99.1183 10.6757 99.1879 11.1082 99.3271 11.4794C99.4697 11.8506 99.6735 12.1406 99.9387 12.3494C100.207 12.5549 100.532 12.6577 100.913 12.6577C101.311 12.6577 101.644 12.5516 101.912 12.3395C102.181 12.1241 102.383 11.8307 102.519 11.4595C102.658 11.085 102.728 10.6591 102.728 10.1818C102.728 9.70786 102.66 9.28693 102.524 8.91903C102.388 8.55114 102.186 8.26278 101.917 8.05398C101.649 7.84517 101.314 7.74077 100.913 7.74077C100.529 7.74077 100.202 7.84186 99.9337 8.04403C99.6652 8.24621 99.4614 8.52959 99.3222 8.89418C99.1863 9.25876 99.1183 9.68797 99.1183 10.1818ZM109.434 14.1491C108.689 14.1491 108.042 13.9851 107.495 13.657C106.949 13.3288 106.524 12.8698 106.223 12.2798C105.924 11.6899 105.775 11.0005 105.775 10.2116C105.775 9.42282 105.924 8.73177 106.223 8.13849C106.524 7.54522 106.949 7.08452 107.495 6.75639C108.042 6.42827 108.689 6.2642 109.434 6.2642C110.18 6.2642 110.826 6.42827 111.373 6.75639C111.92 7.08452 112.343 7.54522 112.641 8.13849C112.943 8.73177 113.093 9.42282 113.093 10.2116C113.093 11.0005 112.943 11.6899 112.641 12.2798C112.343 12.8698 111.92 13.3288 111.373 13.657C110.826 13.9851 110.18 14.1491 109.434 14.1491ZM109.444 12.7074C109.849 12.7074 110.187 12.5964 110.459 12.3743C110.73 12.1489 110.932 11.8473 111.065 11.4695C111.201 11.0916 111.269 10.6707 111.269 10.2067C111.269 9.73935 111.201 9.31676 111.065 8.93892C110.932 8.55777 110.73 8.2545 110.459 8.02912C110.187 7.80374 109.849 7.69105 109.444 7.69105C109.03 7.69105 108.685 7.80374 108.41 8.02912C108.138 8.2545 107.935 8.55777 107.799 8.93892C107.666 9.31676 107.6 9.73935 107.6 10.2067C107.6 10.6707 107.666 11.0916 107.799 11.4695C107.935 11.8473 108.138 12.1489 108.41 12.3743C108.685 12.5964 109.03 12.7074 109.444 12.7074ZM114.621 16.8636V6.36364H116.391V7.62642H116.495C116.588 7.44081 116.719 7.24361 116.888 7.0348C117.057 6.82268 117.286 6.64205 117.574 6.4929C117.862 6.34044 118.23 6.2642 118.678 6.2642C119.268 6.2642 119.8 6.41501 120.274 6.71662C120.751 7.01491 121.129 7.45739 121.407 8.04403C121.689 8.62737 121.83 9.34328 121.83 10.1918C121.83 11.0303 121.692 11.7429 121.417 12.3295C121.142 12.9162 120.768 13.3636 120.294 13.6719C119.82 13.9801 119.283 14.1342 118.683 14.1342C118.245 14.1342 117.882 14.0613 117.594 13.9155C117.306 13.7696 117.074 13.594 116.898 13.3885C116.726 13.1797 116.591 12.9825 116.495 12.7969H116.421V16.8636H114.621ZM116.386 10.1818C116.386 10.6757 116.456 11.1082 116.595 11.4794C116.737 11.8506 116.941 12.1406 117.206 12.3494C117.475 12.5549 117.8 12.6577 118.181 12.6577C118.578 12.6577 118.911 12.5516 119.18 12.3395C119.448 12.1241 119.651 11.8307 119.786 11.4595C119.926 11.085 119.995 10.6591 119.995 10.1818C119.995 9.70786 119.927 9.28693 119.791 8.91903C119.656 8.55114 119.453 8.26278 119.185 8.05398C118.916 7.84517 118.582 7.74077 118.181 7.74077C117.796 7.74077 117.47 7.84186 117.201 8.04403C116.933 8.24621 116.729 8.52959 116.59 8.89418C116.454 9.25876 116.386 9.68797 116.386 10.1818ZM128.238 10.7884V6.36364H130.038V14H128.293V12.6428H128.213C128.041 13.0703 127.758 13.42 127.363 13.6918C126.972 13.9635 126.49 14.0994 125.916 14.0994C125.416 14.0994 124.974 13.9884 124.589 13.7663C124.208 13.541 123.91 13.2145 123.694 12.7869C123.479 12.3561 123.371 11.8357 123.371 11.2259V6.36364H125.171V10.9474C125.171 11.4313 125.303 11.8158 125.568 12.1009C125.834 12.3859 126.182 12.5284 126.612 12.5284C126.878 12.5284 127.134 12.4638 127.383 12.3345C127.632 12.2053 127.835 12.013 127.995 11.7578C128.157 11.4993 128.238 11.1761 128.238 10.7884ZM133.688 3.81818V14H131.889V3.81818H133.688ZM137.736 14.1541C137.253 14.1541 136.817 14.0679 136.429 13.8956C136.044 13.7199 135.739 13.4614 135.514 13.12C135.292 12.7786 135.181 12.3577 135.181 11.8572C135.181 11.4264 135.261 11.0701 135.42 10.7884C135.579 10.5066 135.796 10.2812 136.071 10.1122C136.346 9.94318 136.656 9.81558 137.001 9.7294C137.349 9.63991 137.708 9.57528 138.079 9.53551C138.527 9.48911 138.89 9.44768 139.168 9.41122C139.447 9.37145 139.649 9.31179 139.775 9.23224C139.904 9.14938 139.969 9.02178 139.969 8.84943V8.8196C139.969 8.44508 139.858 8.15507 139.636 7.94957C139.414 7.74408 139.094 7.64134 138.676 7.64134C138.235 7.64134 137.886 7.73745 137.627 7.92969C137.372 8.12192 137.199 8.34896 137.11 8.6108L135.43 8.37216C135.562 7.90814 135.781 7.52036 136.086 7.20881C136.391 6.89394 136.764 6.65862 137.204 6.50284C137.645 6.34375 138.132 6.2642 138.666 6.2642C139.034 6.2642 139.4 6.30729 139.765 6.39347C140.129 6.47964 140.463 6.62216 140.764 6.82102C141.066 7.01657 141.308 7.28338 141.49 7.62145C141.676 7.95952 141.768 8.3821 141.768 8.8892V14H140.038V12.951H139.979C139.869 13.1631 139.715 13.362 139.516 13.5476C139.321 13.7299 139.074 13.8774 138.775 13.9901C138.48 14.0994 138.134 14.1541 137.736 14.1541ZM138.204 12.8317C138.565 12.8317 138.878 12.7604 139.143 12.6179C139.409 12.4721 139.612 12.2798 139.755 12.0412C139.901 11.8026 139.974 11.5424 139.974 11.2607V10.3608C139.917 10.4072 139.821 10.4503 139.685 10.4901C139.553 10.5298 139.404 10.5646 139.238 10.5945C139.072 10.6243 138.908 10.6508 138.746 10.674C138.583 10.6972 138.442 10.7171 138.323 10.7337C138.055 10.7701 137.814 10.8298 137.602 10.9126C137.39 10.9955 137.223 11.1115 137.1 11.2607C136.977 11.4065 136.916 11.5954 136.916 11.8274C136.916 12.1589 137.037 12.4091 137.279 12.5781C137.521 12.7472 137.829 12.8317 138.204 12.8317ZM143.578 14V6.36364H145.323V7.63636H145.403C145.542 7.19555 145.78 6.85582 146.119 6.61719C146.46 6.37524 146.849 6.25426 147.287 6.25426C147.386 6.25426 147.497 6.25923 147.62 6.26918C147.746 6.2758 147.85 6.2874 147.933 6.30398V7.95952C147.857 7.933 147.736 7.9098 147.57 7.88991C147.408 7.86671 147.25 7.85511 147.098 7.85511C146.77 7.85511 146.475 7.92637 146.213 8.06889C145.954 8.2081 145.751 8.40199 145.601 8.65057C145.452 8.89915 145.378 9.18584 145.378 9.51065V14H143.578ZM151.331 3.81818L151.167 11.0071H149.566L149.407 3.81818H151.331ZM150.367 14.1094C150.065 14.1094 149.807 14.0033 149.591 13.7912C149.379 13.5791 149.273 13.3205 149.273 13.0156C149.273 12.7173 149.379 12.4621 149.591 12.25C149.807 12.0379 150.065 11.9318 150.367 11.9318C150.662 11.9318 150.917 12.0379 151.132 12.25C151.351 12.4621 151.46 12.7173 151.46 13.0156C151.46 13.2178 151.409 13.4018 151.306 13.5675C151.207 13.7332 151.074 13.8658 150.909 13.9652C150.746 14.0613 150.566 14.1094 150.367 14.1094Z" fill="#2F80ED"/>
<path d="M8.46934 50.4485C8.31199 51.2619 8.84378 52.0488 9.65713 52.2061C10.4705 52.3635 11.2574 51.8317 11.4147 51.0184L9.94204 50.7334L8.46934 50.4485ZM49.8329 11.7912C50.6538 11.6802 51.2294 10.9247 51.1184 10.1038C51.0074 9.28282 50.2519 8.70727 49.431 8.81824L49.6319 10.3047L49.8329 11.7912ZM4.03603 40.3308C3.60916 39.6208 2.68756 39.3913 1.97758 39.8182C1.2676 40.2451 1.03809 41.1667 1.46496 41.8766L2.7505 41.1037L4.03603 40.3308ZM8.22548 50.2098L6.93995 50.9828L6.94067 50.984L8.22548 50.2098ZM11.842 51.2606L11.2291 49.8916L11.2278 49.8921L11.842 51.2606ZM22.7611 48.0155C23.5172 47.677 23.8557 46.7897 23.5172 46.0336C23.1787 45.2774 22.2913 44.9389 21.5352 45.2774L22.1481 46.6465L22.7611 48.0155ZM9.94204 50.7334C11.4147 51.0184 11.4147 51.0187 11.4146 51.019C11.4146 51.0189 11.4146 51.0192 11.4146 51.0192C11.4146 51.0192 11.4146 51.0189 11.4147 51.0184C11.4149 51.0173 11.4154 51.0152 11.416 51.012C11.4172 51.0058 11.4193 50.9953 11.4222 50.9808C11.4281 50.9517 11.4375 50.9064 11.4504 50.8456C11.4762 50.7239 11.5163 50.5403 11.5721 50.3008C11.6837 49.8216 11.8576 49.1193 12.1039 48.2421C12.5969 46.4863 13.3779 44.0371 14.5261 41.2782C16.8321 35.7375 20.5724 29.0615 26.3326 24.2002L25.3651 23.0539L24.3977 21.9076C18.1251 27.2013 14.1538 34.3651 11.7564 40.1255C10.553 43.0171 9.73434 45.5837 9.21562 47.4311C8.95608 48.3554 8.77112 49.1015 8.6503 49.6204C8.58987 49.8799 8.54545 50.0827 8.51573 50.2227C8.50087 50.2927 8.48968 50.3471 8.48201 50.385C8.47817 50.4039 8.47521 50.4187 8.4731 50.4294C8.47205 50.4347 8.47121 50.4389 8.47059 50.4421C8.47027 50.4437 8.47001 50.4451 8.46981 50.4461C8.4697 50.4467 8.46959 50.4473 8.46953 50.4475C8.46943 50.4481 8.46934 50.4485 9.94204 50.7334ZM25.3651 23.0539L26.3326 24.2002C38.1451 14.2311 47.5336 12.102 49.8329 11.7912L49.6319 10.3047L49.431 8.81824C46.5724 9.20465 36.6508 11.5666 24.3977 21.9076L25.3651 23.0539ZM2.7505 41.1037L1.46496 41.8766L6.93995 50.9828L8.22548 50.2098L9.51102 49.4369L4.03603 40.3308L2.7505 41.1037ZM8.22548 50.2098L6.94067 50.984C8.08293 52.8798 10.4692 53.5209 12.4562 52.6291L11.842 51.2606L11.2278 49.8921C10.5267 50.2068 9.81489 49.9412 9.51029 49.4357L8.22548 50.2098ZM11.842 51.2606L12.4549 52.6297L22.7611 48.0155L22.1481 46.6465L21.5352 45.2774L11.2291 49.8916L11.842 51.2606Z" fill="#2F80ED"/>
</svg>
