<svg width="22" height="22" viewBox="0 0 22 22" fill="none" xmlns="http://www.w3.org/2000/svg">
<path d="M11.6943 1.08301C12.1992 1.08305 12.6937 1.1923 13.1445 1.39746C13.5223 1.56944 13.8708 1.80923 14.1699 2.1084L18.0586 5.99707C18.3578 6.2963 18.5975 6.64458 18.7695 7.02246C18.9746 7.47312 19.0839 7.96699 19.084 8.47168V17.416C19.084 19.3488 17.5167 20.9157 15.584 20.916H6.41699C4.484 20.916 2.91699 19.349 2.91699 17.416V4.58301C2.91717 2.65016 4.4841 1.08301 6.41699 1.08301H11.6943ZM6.41699 2.58301C5.31253 2.58301 4.41717 3.47859 4.41699 4.58301V17.416C4.41699 18.5206 5.31242 19.416 6.41699 19.416H15.584C16.6883 19.4157 17.584 18.5204 17.584 17.416V8.47168C17.5839 8.18337 17.5215 7.90107 17.4043 7.64355C17.355 7.53525 17.2957 7.43136 17.2275 7.33301H13.833C13.2809 7.33283 12.833 6.88518 12.833 6.33301V2.93848C12.7351 2.87053 12.6314 2.81184 12.5234 2.7627C12.2658 2.64545 11.9828 2.58305 11.6943 2.58301H6.41699ZM13.9795 9.79102C14.3933 9.79119 14.7291 10.1272 14.7295 10.541V10.8281C15.2463 10.9711 15.677 11.2581 15.9639 11.623C16.2196 11.9485 16.1629 12.4197 15.8379 12.6758C15.5122 12.9317 15.0401 12.8755 14.7842 12.5498C14.674 12.4099 14.4032 12.2286 13.9795 12.2285C13.3004 12.2285 13.1258 12.6375 13.125 12.7285C13.125 12.8781 13.1506 12.9614 13.1699 13.0029C13.1869 13.0393 13.2091 13.0648 13.2451 13.0898C13.3385 13.1547 13.5537 13.2285 13.9795 13.2285C14.5156 13.2285 15.1032 13.311 15.5713 13.6367C16.0928 13.9998 16.3338 14.5675 16.334 15.2285C16.334 16.1472 15.6368 16.863 14.7295 17.1221V17.416C14.7295 17.8301 14.3936 18.1658 13.9795 18.166C13.5653 18.166 13.2295 17.8302 13.2295 17.416V17.1279C12.7129 16.985 12.2819 16.6998 11.9951 16.335C11.7392 16.0093 11.7955 15.5372 12.1211 15.2812C12.4467 15.0256 12.9189 15.0827 13.1748 15.4082C13.2851 15.5481 13.5557 15.7285 13.9795 15.7285C14.66 15.7284 14.834 15.3182 14.834 15.2285C14.8339 15.0792 14.8084 14.9965 14.7891 14.9551C14.7721 14.9187 14.7499 14.8932 14.7139 14.8682C14.6206 14.8033 14.4054 14.7286 13.9795 14.7285C13.4433 14.7285 12.8559 14.647 12.3877 14.3213C11.8658 13.9581 11.625 13.3899 11.625 12.7285C11.6253 11.81 12.3221 11.0938 13.2295 10.835V10.541C13.2298 10.1271 13.5655 9.79102 13.9795 9.79102ZM11 8.41602C11.4138 8.41619 11.7496 8.75221 11.75 9.16602C11.75 9.58012 11.4141 9.91584 11 9.91602H6.41699C6.00278 9.91602 5.66699 9.58023 5.66699 9.16602C5.66734 8.7521 6.003 8.41602 6.41699 8.41602H11ZM10.084 4.75C10.4978 4.75035 10.8338 5.08615 10.834 5.5C10.8338 5.91385 10.4978 6.24965 10.084 6.25H6.41699C6.00289 6.25 5.66717 5.91406 5.66699 5.5C5.66717 5.08594 6.00289 4.75 6.41699 4.75H10.084Z" fill="#333436"/>
</svg>
