<svg width="32" height="32" viewBox="0 0 32 32" fill="none" xmlns="http://www.w3.org/2000/svg">
<path d="M22.666 18.667C26.3477 18.6671 29.3319 21.6514 29.332 25.333V26.667C29.3319 27.4032 28.7353 28 27.999 28H23.8311C23.9407 27.5739 23.999 27.1273 23.999 26.667V25.333C23.9989 22.8106 23.123 20.493 21.6592 18.667H22.666ZM21.332 4C24.2774 4 26.6658 6.38764 26.666 9.33301C26.666 12.2785 24.2775 14.667 21.332 14.667C20.8018 14.667 20.2901 14.5875 19.8066 14.4434C20.7696 12.975 21.332 11.2201 21.332 9.33301C21.332 7.4458 20.7698 5.69102 19.8066 4.22266C20.29 4.07856 20.8018 4.00004 21.332 4Z" fill="#2F80ED"/>
<path d="M13.3333 18.6667H10.6667C6.98477 18.6667 4 21.6514 4 25.3333V26.6667C4 27.403 4.59695 28 5.33333 28H18.6667C19.403 28 20 27.403 20 26.6667V25.3333C20 21.6514 17.0152 18.6667 13.3333 18.6667Z" stroke="#2F80ED" stroke-width="1.5"/>
<path d="M12 14.6667C14.9455 14.6667 17.3333 12.2789 17.3333 9.33333C17.3333 6.38781 14.9455 4 12 4C9.05448 4 6.66667 6.38781 6.66667 9.33333C6.66667 12.2789 9.05448 14.6667 12 14.6667Z" stroke="#2F80ED" stroke-width="1.5"/>
</svg>
