<svg width="22" height="22" viewBox="0 0 22 22" fill="none" xmlns="http://www.w3.org/2000/svg">
<path d="M10.9997 7.33334C9.62467 7.33334 8.70801 8.25001 8.70801 9.16668C8.70801 10.5417 9.62467 11 10.9997 11C12.3747 11 13.2913 11.4583 13.2913 12.8333C13.2913 13.75 12.3747 14.6667 10.9997 14.6667M10.9997 7.33334C12.3747 7.33334 13.2913 8.25001 13.2913 9.0139M10.9997 7.33334V5.95834M10.9997 14.6667C9.62467 14.6667 8.86079 13.75 8.86079 12.9861M10.9997 14.6667V16.0417M10.9997 20.1667C5.93706 20.1667 1.83301 16.0626 1.83301 11C1.83301 5.9374 5.93706 1.83334 10.9997 1.83334C16.0623 1.83334 20.1663 5.9374 20.1663 11C20.1663 16.0626 16.0623 20.1667 10.9997 20.1667Z" stroke="#333436" stroke-width="1.5" stroke-linecap="round" stroke-linejoin="round"/>
</svg>
