<svg width="22" height="22" viewBox="0 0 22 22" fill="none" xmlns="http://www.w3.org/2000/svg">
<path d="M15.583 12.833C18.1143 12.833 20.167 14.8857 20.167 17.417V18.333C20.167 18.8393 19.7563 19.25 19.25 19.25H16.3848C16.4602 18.957 16.5 18.6495 16.5 18.333V17.417C16.5 15.6824 15.8974 14.0886 14.8906 12.833H15.583ZM14.667 2.75C16.6919 2.75015 18.333 4.39204 18.333 6.41699C18.3328 8.44179 16.6918 10.0829 14.667 10.083C14.3025 10.083 13.9505 10.0287 13.6182 9.92969C14.2801 8.92033 14.6669 7.71416 14.667 6.41699C14.667 5.11931 14.2805 3.91197 13.6182 2.90234C13.9504 2.80336 14.3026 2.75 14.667 2.75Z" fill="#333436"/>
<path d="M9.16667 12.8333H7.33333C4.80203 12.8333 2.75 14.8854 2.75 17.4167V18.3333C2.75 18.8396 3.16041 19.25 3.66667 19.25H12.8333C13.3396 19.25 13.75 18.8396 13.75 18.3333V17.4167C13.75 14.8854 11.698 12.8333 9.16667 12.8333Z" stroke="#333436" stroke-width="1.5"/>
<path d="M8.25 10.0833C10.275 10.0833 11.9167 8.44171 11.9167 6.41667C11.9167 4.39162 10.275 2.75 8.25 2.75C6.22496 2.75 4.58333 4.39162 4.58333 6.41667C4.58333 8.44171 6.22496 10.0833 8.25 10.0833Z" stroke="#333436" stroke-width="1.5"/>
</svg>
