<svg width="22" height="22" viewBox="0 0 22 22" fill="none" xmlns="http://www.w3.org/2000/svg">
<path d="M9.19043 2.70692C10.195 1.76424 11.8052 1.76403 12.8096 2.70692L18.041 7.61903L19.7627 9.23622C20.0645 9.5196 20.08 9.9938 19.7969 10.2958C19.6078 10.4971 19.3342 10.5679 19.083 10.5106V16.6679C19.083 18.5519 17.4707 19.9999 15.583 19.9999H6.41602C4.52844 19.9997 2.91602 18.5518 2.91602 16.6679V10.5106C2.66506 10.5676 2.39201 10.4969 2.20312 10.2958C1.91994 9.99391 1.93471 9.5197 2.23633 9.23622L3.95801 7.61903H3.95898L9.19043 2.70692ZM11.7832 3.80067C11.3559 3.39951 10.6442 3.39962 10.2168 3.80067L4.98535 8.71278C4.61523 9.06043 4.41618 9.5215 4.41602 9.9911V16.6679C4.41602 17.6357 5.26639 18.4997 6.41602 18.4999H15.583C16.7328 18.4999 17.583 17.6358 17.583 16.6679V9.9911C17.5828 9.52137 17.3847 9.06035 17.0146 8.71278L11.7832 3.80067ZM11.833 12.8329C12.3851 12.8329 12.8328 13.2808 12.833 13.8329V15.4999C12.833 16.0522 12.3853 16.4999 11.833 16.4999H10.166C9.61387 16.4997 9.16602 16.0521 9.16602 15.4999V13.8329C9.16625 13.2809 9.61402 12.8331 10.166 12.8329H11.833Z" fill="white"/>
</svg>
