<svg width="220" height="40" viewBox="0 0 220 40" fill="none" xmlns="http://www.w3.org/2000/svg">
<rect x="0.238095" y="0.238095" width="39.5238" height="39.5238" rx="8.33333" fill="white"/>
<rect x="0.238095" y="0.238095" width="39.5238" height="39.5238" rx="8.33333" stroke="white" stroke-width="0.47619"/>
<g clip-path="url(#clip0_14597_53013)">
<path d="M13.9825 10.9643C14.2376 10.5223 14.7093 10.25 15.2196 10.25L25.0635 10.25C25.5739 10.25 26.0455 10.5223 26.3007 10.9643L31.2226 19.4893C31.4778 19.9313 31.4778 20.4759 31.2226 20.9179L27.4339 27.4801L26.1967 25.3373L29.1606 20.2036L24.6511 12.3929L15.632 12.3929L12.6834 17.5H10.2091L13.9825 10.9643Z" fill="#2F80ED"/>
<path d="M24.6723 27.9776L25.8094 29.947C25.5885 30.0822 25.3314 30.1572 25.0635 30.1572H15.2196C14.7093 30.1572 14.2376 29.8849 13.9825 29.4429L9.06053 20.9179C8.92862 20.6894 8.8649 20.4335 8.86936 20.1786L19.5587 20.1785C19.9423 20.1785 20.2967 20.3836 20.4878 20.7162L24.6657 27.989L24.6723 27.9776Z" fill="#2F80ED"/>
</g>
<path d="M54.2736 29.2418C52.6776 29.2418 51.2429 28.8791 49.9693 28.1536C48.6957 27.4282 47.6882 26.3763 46.9466 24.998C46.205 23.6196 45.8343 21.9551 45.8343 20.0045C45.8343 18.0377 46.205 16.3651 46.9466 14.9868C47.6882 13.6004 48.6957 12.5485 49.9693 11.8311C51.2429 11.1057 52.6776 10.7429 54.2736 10.7429C55.8696 10.7429 57.3044 11.1057 58.5779 11.8311C59.8515 12.5485 60.855 13.6004 61.5885 14.9868C62.3301 16.3651 62.7009 18.0377 62.7009 20.0045C62.7009 21.9632 62.3301 23.6317 61.5885 25.01C60.855 26.3884 59.8515 27.4403 58.5779 28.1657C57.3044 28.8831 55.8696 29.2418 54.2736 29.2418ZM54.2736 25.8806C55.2006 25.8806 56.0066 25.6549 56.6918 25.2035C57.3769 24.7521 57.9049 24.0911 58.2757 23.2206C58.6545 22.342 58.8439 21.27 58.8439 20.0045C58.8439 18.7309 58.6545 17.6548 58.2757 16.7762C57.9049 15.8976 57.3769 15.2326 56.6918 14.7812C56.0066 14.3299 55.2006 14.1042 54.2736 14.1042C53.3547 14.1042 52.5527 14.3299 51.8676 14.7812C51.1824 15.2326 50.6464 15.8976 50.2595 16.7762C49.8806 17.6548 49.6912 18.7309 49.6912 20.0045C49.6912 21.27 49.8806 22.342 50.2595 23.2206C50.6464 24.0911 51.1824 24.7521 51.8676 25.2035C52.5527 25.6549 53.3547 25.8806 54.2736 25.8806ZM64.6475 29V15.4825H68.2626V17.8523H68.4077C68.6576 17.014 69.0727 16.3813 69.6531 15.9541C70.2334 15.5188 70.8984 15.3012 71.6481 15.3012C71.8415 15.3012 72.043 15.3132 72.2526 15.3374C72.4702 15.3535 72.6637 15.3858 72.833 15.4342V18.747C72.6556 18.6906 72.4098 18.6463 72.0954 18.614C71.7891 18.5737 71.503 18.5536 71.237 18.5536C70.6969 18.5536 70.2093 18.6745 69.774 18.9163C69.3387 19.15 68.9962 19.4805 68.7463 19.9077C68.5045 20.3269 68.3836 20.8105 68.3836 21.3586V29H64.6475ZM73.9574 29V15.4825H77.6935V29H73.9574ZM75.8194 13.7535C75.2632 13.7535 74.7876 13.5681 74.3927 13.1974C73.9977 12.8266 73.8002 12.3792 73.8002 11.8553C73.8002 11.3313 73.9977 10.888 74.3927 10.5253C74.7876 10.1545 75.2632 9.96912 75.8194 9.96912C76.3836 9.96912 76.8632 10.1545 77.2582 10.5253C77.6532 10.888 77.8506 11.3313 77.8506 11.8553C77.8506 12.3792 77.6532 12.8266 77.2582 13.1974C76.8632 13.5681 76.3836 13.7535 75.8194 13.7535ZM85.9515 34.3441C84.1298 34.3441 82.7031 33.9814 81.6713 33.256C80.6396 32.5386 80.0109 31.6438 79.7852 30.5718L83.2431 30.1124C83.3479 30.3864 83.5131 30.6403 83.7388 30.8741C83.9645 31.1078 84.2668 31.2932 84.6456 31.4302C85.0245 31.5753 85.488 31.6479 86.0361 31.6479C86.8502 31.6479 87.5233 31.4504 88.0552 31.0554C88.5872 30.6685 88.8532 30.0116 88.8532 29.0846V26.606H88.6961C88.5348 26.9768 88.289 27.3315 87.9585 27.67C87.628 28.0086 87.2049 28.2826 86.689 28.4922C86.1731 28.7018 85.5565 28.8065 84.8391 28.8065C83.8235 28.8065 82.9005 28.5728 82.0703 28.1053C81.2481 27.6297 80.5872 26.9043 80.0874 25.9289C79.5957 24.9536 79.3499 23.7204 79.3499 22.2292C79.3499 20.6896 79.5998 19.408 80.0995 18.3843C80.6073 17.3606 81.2764 16.5949 82.1066 16.0871C82.9368 15.5712 83.8477 15.3132 84.8391 15.3132C85.5968 15.3132 86.2295 15.4422 86.7374 15.7001C87.2532 15.95 87.6724 16.2644 87.9948 16.6432C88.3172 17.0221 88.559 17.3969 88.7202 17.7677H88.8653V15.4825H92.553V29.1451C92.553 30.2897 92.2709 31.2489 91.7067 32.0227C91.1424 32.7965 90.3646 33.3769 89.3731 33.7638C88.3817 34.1507 87.2411 34.3441 85.9515 34.3441ZM86.024 25.9894C86.9268 25.9894 87.624 25.6549 88.1157 24.9859C88.6155 24.3168 88.8653 23.3899 88.8653 22.205C88.8653 21.4151 88.7525 20.7299 88.5268 20.1496C88.3092 19.5611 87.9908 19.1057 87.5716 18.7833C87.1525 18.4528 86.6366 18.2876 86.024 18.2876C85.4114 18.2876 84.8915 18.4568 84.4643 18.7954C84.0451 19.1259 83.7268 19.5853 83.5091 20.1737C83.2915 20.7622 83.1827 21.4392 83.1827 22.205C83.1827 22.9788 83.2915 23.6518 83.5091 24.2241C83.7268 24.7884 84.0451 25.2236 84.4643 25.5299C84.8915 25.8362 85.4114 25.9894 86.024 25.9894ZM94.7535 29V15.4825H98.4896V29H94.7535ZM96.6155 13.7535C96.0593 13.7535 95.5838 13.5681 95.1888 13.1974C94.7938 12.8266 94.5964 12.3792 94.5964 11.8553C94.5964 11.3313 94.7938 10.888 95.1888 10.5253C95.5838 10.1545 96.0593 9.96912 96.6155 9.96912C97.1798 9.96912 97.6594 10.1545 98.0543 10.5253C98.4493 10.888 98.6468 11.3313 98.6468 11.8553C98.6468 12.3792 98.4493 12.8266 98.0543 13.1974C97.6594 13.5681 97.1798 13.7535 96.6155 13.7535ZM104.438 21.1894V29H100.702V15.4825H104.378V17.8886H104.511C104.817 17.0906 105.305 16.4619 105.974 16.0024C106.643 15.543 107.481 15.3132 108.489 15.3132C109.424 15.3132 110.238 15.5188 110.931 15.9299C111.632 16.341 112.176 16.9253 112.563 17.683C112.95 18.4407 113.144 19.3475 113.144 20.4035V29H109.408V21.0685C109.408 20.2463 109.194 19.6014 108.767 19.1339C108.34 18.6584 107.751 18.4206 107.001 18.4206C106.502 18.4206 106.058 18.5334 105.672 18.7591C105.285 18.9767 104.982 19.2911 104.765 19.7022C104.547 20.1133 104.438 20.609 104.438 21.1894ZM119.201 29.2539C118.347 29.2539 117.577 29.1048 116.892 28.8065C116.215 28.5002 115.683 28.0489 115.296 27.4524C114.909 26.8559 114.715 26.1143 114.715 25.2277C114.715 24.47 114.852 23.8413 115.126 23.3415C115.401 22.8337 115.775 22.4226 116.251 22.1083C116.726 21.7939 117.267 21.5561 117.871 21.3949C118.476 21.2337 119.116 21.1208 119.794 21.0564C120.575 20.9838 121.204 20.9113 121.68 20.8387C122.155 20.7662 122.502 20.6574 122.719 20.5123C122.945 20.3591 123.058 20.1415 123.058 19.8594V19.7989C123.058 19.2427 122.881 18.8115 122.526 18.5052C122.179 18.1989 121.688 18.0458 121.051 18.0458C120.382 18.0458 119.846 18.1949 119.443 18.4931C119.048 18.7833 118.786 19.1541 118.657 19.6055L115.187 19.3274C115.364 18.5052 115.711 17.7959 116.227 17.1994C116.743 16.5949 117.408 16.1314 118.222 15.809C119.044 15.4785 119.995 15.3132 121.075 15.3132C121.825 15.3132 122.542 15.4019 123.227 15.5792C123.912 15.7566 124.521 16.0306 125.053 16.4014C125.593 16.7641 126.02 17.2357 126.335 17.816C126.649 18.3964 126.806 19.0856 126.806 19.8836V29H123.239V27.1138H123.143C122.925 27.541 122.635 27.9159 122.272 28.2383C121.909 28.5526 121.474 28.8025 120.966 28.9879C120.459 29.1652 119.87 29.2539 119.201 29.2539ZM120.277 26.6665C120.825 26.6665 121.309 26.5577 121.728 26.34C122.155 26.1143 122.486 25.8161 122.719 25.4453C122.961 25.0665 123.082 24.6433 123.082 24.1758V22.737C122.969 22.8095 122.808 22.878 122.599 22.9425C122.397 23.007 122.171 23.0634 121.922 23.1118C121.672 23.1602 121.422 23.2045 121.172 23.2448C120.922 23.277 120.696 23.3093 120.495 23.3415C120.051 23.406 119.665 23.5108 119.334 23.6559C119.004 23.7929 118.746 23.9823 118.56 24.2241C118.383 24.4579 118.294 24.7521 118.294 25.1068C118.294 25.6146 118.48 26.0015 118.85 26.2675C119.221 26.5335 119.697 26.6665 120.277 26.6665ZM132.731 10.9847V29H128.995V10.9847H132.731ZM143.733 10.9847V29H139.937V10.9847H143.733ZM149.73 21.1894V29H145.994V15.4825H149.67V17.8886H149.803C150.109 17.0906 150.597 16.4619 151.266 16.0024C151.935 15.543 152.773 15.3132 153.781 15.3132C154.716 15.3132 155.53 15.5188 156.223 15.9299C156.924 16.341 157.468 16.9253 157.855 17.683C158.242 18.4407 158.436 19.3475 158.436 20.4035V29H154.7V21.0685C154.7 20.2463 154.486 19.6014 154.059 19.1339C153.632 18.6584 153.043 18.4206 152.294 18.4206C151.794 18.4206 151.35 18.5334 150.964 18.7591C150.577 18.9767 150.274 19.2911 150.057 19.7022C149.839 20.1133 149.73 20.609 149.73 21.1894ZM172.739 15.4825L168.024 29H163.792L159.089 15.4825H163.042L165.884 25.1672H166.029L168.822 15.4825H172.739ZM179.522 29.266C178.16 29.266 176.979 28.9758 175.979 28.3955C174.988 27.807 174.222 26.9929 173.682 25.9531C173.15 24.9053 172.884 23.6881 172.884 22.3017C172.884 20.8992 173.15 19.678 173.682 18.6382C174.222 17.5903 174.988 16.7762 175.979 16.1959C176.979 15.6075 178.16 15.3132 179.522 15.3132C180.892 15.3132 182.073 15.6075 183.065 16.1959C184.064 16.7762 184.83 17.5903 185.362 18.6382C185.902 19.678 186.172 20.8992 186.172 22.3017C186.172 23.6881 185.902 24.9053 185.362 25.9531C184.83 26.9929 184.064 27.807 183.065 28.3955C182.073 28.9758 180.892 29.266 179.522 29.266ZM179.546 26.34C180.167 26.34 180.687 26.1667 181.106 25.8201C181.525 25.4655 181.839 24.9818 182.049 24.3692C182.267 23.7566 182.375 23.0594 182.375 22.2775C182.375 21.4876 182.267 20.7904 182.049 20.1858C181.839 19.5813 181.525 19.1057 181.106 18.7591C180.687 18.4125 180.167 18.2392 179.546 18.2392C178.917 18.2392 178.389 18.4125 177.962 18.7591C177.543 19.1057 177.225 19.5813 177.007 20.1858C176.797 20.7904 176.693 21.4876 176.693 22.2775C176.693 23.0594 176.797 23.7566 177.007 24.3692C177.225 24.9818 177.543 25.4655 177.962 25.8201C178.389 26.1667 178.917 26.34 179.546 26.34ZM187.828 29V15.4825H191.564V29H187.828ZM189.69 13.7535C189.134 13.7535 188.659 13.5681 188.264 13.1974C187.869 12.8266 187.671 12.3792 187.671 11.8553C187.671 11.3313 187.869 10.888 188.264 10.5253C188.659 10.1545 189.134 9.96912 189.69 9.96912C190.255 9.96912 190.734 10.1545 191.129 10.5253C191.524 10.888 191.722 11.3313 191.722 11.8553C191.722 12.3792 191.524 12.8266 191.129 13.1974C190.734 13.5681 190.255 13.7535 189.69 13.7535ZM199.859 29.266C198.48 29.266 197.295 28.9718 196.304 28.3834C195.313 27.7869 194.551 26.9687 194.019 25.9289C193.487 24.8811 193.221 23.672 193.221 22.3017C193.221 20.9153 193.487 19.6982 194.019 18.6503C194.559 17.6024 195.325 16.7843 196.316 16.1959C197.307 15.6075 198.488 15.3132 199.859 15.3132C201.035 15.3132 202.063 15.5268 202.942 15.9541C203.828 16.3813 204.53 16.9818 205.046 17.7556C205.561 18.5294 205.844 19.4402 205.892 20.4881H202.361C202.297 20.0367 202.16 19.6417 201.95 19.3032C201.741 18.9647 201.463 18.7027 201.116 18.5173C200.769 18.3319 200.366 18.2392 199.907 18.2392C199.327 18.2392 198.819 18.3964 198.384 18.7108C197.956 19.0171 197.622 19.4725 197.38 20.077C197.146 20.6735 197.029 21.3989 197.029 22.2533C197.029 23.1078 197.146 23.8413 197.38 24.4539C197.622 25.0665 197.956 25.534 198.384 25.8564C198.819 26.1788 199.327 26.34 199.907 26.34C200.552 26.34 201.096 26.1385 201.539 25.7355C201.983 25.3244 202.257 24.7602 202.361 24.0428H205.892C205.836 25.0745 205.557 25.9854 205.058 26.7753C204.558 27.5572 203.869 28.1698 202.99 28.6131C202.112 29.0484 201.068 29.266 199.859 29.266ZM213.666 29.266C212.28 29.266 211.083 28.9839 210.075 28.4196C209.068 27.8554 208.294 27.0534 207.754 26.0136C207.222 24.9657 206.956 23.7284 206.956 22.3017C206.956 20.9153 207.222 19.6982 207.754 18.6503C208.294 17.6024 209.052 16.7843 210.027 16.1959C211.01 15.6075 212.163 15.3132 213.485 15.3132C214.38 15.3132 215.214 15.4583 215.988 15.7485C216.762 16.0306 217.439 16.4578 218.019 17.0301C218.599 17.5944 219.051 18.3077 219.373 19.1702C219.696 20.0246 219.857 21.0281 219.857 22.1808V23.1964H208.443V20.8871H218.043L216.302 21.4916C216.302 20.8065 216.197 20.21 215.988 19.7022C215.778 19.1944 215.464 18.8034 215.045 18.5294C214.634 18.2473 214.122 18.1062 213.509 18.1062C212.897 18.1062 212.377 18.2473 211.949 18.5294C211.53 18.8115 211.208 19.1944 210.982 19.678C210.756 20.1616 210.644 20.7178 210.644 21.3465V22.9788C210.644 23.7123 210.773 24.341 211.031 24.865C211.288 25.3808 211.647 25.7798 212.107 26.0619C212.574 26.336 213.11 26.473 213.715 26.473C214.134 26.473 214.513 26.4126 214.851 26.2917C215.19 26.1708 215.48 25.9934 215.722 25.7597C215.972 25.5259 216.157 25.2438 216.278 24.9133L219.736 25.143C219.567 25.9733 219.212 26.6987 218.672 27.3194C218.14 27.932 217.451 28.4116 216.604 28.7582C215.758 29.0967 214.779 29.266 213.666 29.266Z" fill="white"/>
<defs>
<clipPath id="clip0_14597_53013">
<rect width="22.8571" height="22.8571" fill="white" transform="translate(8.57227 8.57129)"/>
</clipPath>
</defs>
</svg>
