<svg width="32" height="32" viewBox="0 0 32 32" fill="none" xmlns="http://www.w3.org/2000/svg">
<path d="M22.668 4.58301C25.2911 4.58318 27.4178 6.70991 27.418 9.33301V11.6943H28.001C29.1513 11.6945 30.0847 12.6271 30.085 13.7773V18C30.0848 19.1503 29.1513 20.0828 28.001 20.083H27.418V22.666C27.418 25.2893 25.2912 27.4158 22.668 27.416H6.66797C4.04462 27.416 1.91797 25.2894 1.91797 22.666V9.33301C1.91814 6.70981 4.04472 4.58301 6.66797 4.58301H22.668ZM6.66797 6.08301C4.87315 6.08301 3.41814 7.53823 3.41797 9.33301V22.666C3.41797 24.4609 4.87304 25.916 6.66797 25.916H22.668C24.4627 25.9158 25.918 24.4608 25.918 22.666V20.083H19.4453C17.129 20.0828 15.251 18.205 15.251 15.8887C15.2512 13.5724 17.1291 11.6946 19.4453 11.6943H25.918V9.33301C25.9178 7.53834 24.4626 6.08318 22.668 6.08301H6.66797ZM19.4453 13.1943C17.9575 13.1946 16.7512 14.4009 16.751 15.8887C16.751 17.3766 17.9574 18.5828 19.4453 18.583H28.001C28.3229 18.5828 28.5848 18.3219 28.585 18V13.7773C28.5847 13.4555 28.3228 13.1945 28.001 13.1943H19.4453ZM19.334 14.667C20.0704 14.667 20.668 15.2636 20.668 16C20.668 16.7364 20.0704 17.333 19.334 17.333C18.5978 17.3328 18.001 16.7363 18.001 16C18.001 15.2637 18.5978 14.6672 19.334 14.667Z" fill="#2F80ED"/>
</svg>
