<svg width="22" height="22" viewBox="0 0 22 22" fill="none" xmlns="http://www.w3.org/2000/svg">
<path d="M2.90625 6.82004L11.0004 11.5042L19.0396 6.84751" stroke="#333436" stroke-width="1.5" stroke-linecap="round" stroke-linejoin="round"/>
<path d="M11 19.8092V11.495" stroke="#333436" stroke-width="1.5" stroke-linecap="round" stroke-linejoin="round"/>
<path d="M9.10305 2.27334L4.20806 4.99587C3.09889 5.61004 2.19141 7.15002 2.19141 8.41502V13.5942C2.19141 14.8592 3.09889 16.3992 4.20806 17.0134L9.10305 19.7359C10.1481 20.3134 11.8622 20.3134 12.9072 19.7359L17.8022 17.0134C18.9114 16.3992 19.8189 14.8592 19.8189 13.5942V8.41502C19.8189 7.15002 18.9114 5.61004 17.8022 4.99587L12.9072 2.27334C11.853 1.68668 10.1481 1.68668 9.10305 2.27334Z" stroke="#333436" stroke-width="1.5" stroke-linecap="round" stroke-linejoin="round"/>
<path d="M15.5829 12.1366V8.78167L6.88379 3.7583" stroke="#333436" stroke-width="1.5" stroke-linecap="round" stroke-linejoin="round"/>
</svg>
