<svg width="48" height="48" viewBox="0 0 48 48" fill="none" xmlns="http://www.w3.org/2000/svg">
<rect x="4" y="4" width="40" height="40" rx="20" stroke="#EFF8FF" stroke-width="8"/>
<path d="M20.6673 20.3332H27.334M20.6673 23.6665H27.334M20.6673 26.9998H27.334M19.834 16.1665H28.1673C29.548 16.1665 30.6673 17.2924 30.6673 18.6813V32.2539C30.6673 32.5655 30.3414 32.7682 30.0643 32.6288L27.7067 31.443C27.4721 31.325 27.1959 31.325 26.9613 31.443L24.3733 32.7447C24.1387 32.8627 23.8626 32.8627 23.628 32.7447L21.04 31.443C20.8054 31.325 20.5292 31.325 20.2946 31.443L17.937 32.6288C17.6599 32.7682 17.334 32.5655 17.334 32.2539V18.6813C17.334 17.2924 18.4533 16.1665 19.834 16.1665Z" stroke="#2F80ED" stroke-width="1.5" stroke-linecap="round" stroke-linejoin="round"/>
</svg>
