<svg width="48" height="48" viewBox="0 0 48 48" fill="none" xmlns="http://www.w3.org/2000/svg">
<rect x="4" y="4" width="40" height="40" rx="20" stroke="#EFF8FF" stroke-width="8"/>
<path d="M16.6426 20.6997L24.0009 24.958L31.3092 20.7247" stroke="#2F80ED" stroke-width="1.5" stroke-linecap="round" stroke-linejoin="round"/>
<path d="M24.002 32.508V24.9497" stroke="#2F80ED" stroke-width="1.5" stroke-linecap="round" stroke-linejoin="round"/>
<path d="M22.2755 16.5665L17.8255 19.0415C16.8172 19.5999 15.9922 20.9998 15.9922 22.1498V26.8582C15.9922 28.0082 16.8172 29.4082 17.8255 29.9665L22.2755 32.4415C23.2255 32.9665 24.7838 32.9665 25.7338 32.4415L30.1839 29.9665C31.1922 29.4082 32.0172 28.0082 32.0172 26.8582V22.1498C32.0172 20.9998 31.1922 19.5999 30.1839 19.0415L25.7338 16.5665C24.7755 16.0332 23.2255 16.0332 22.2755 16.5665Z" stroke="#2F80ED" stroke-width="1.5" stroke-linecap="round" stroke-linejoin="round"/>
<path d="M28.1661 25.5332V22.4832L20.2578 17.9165" stroke="#2F80ED" stroke-width="1.5" stroke-linecap="round" stroke-linejoin="round"/>
</svg>
