<svg width="32" height="32" viewBox="0 0 32 32" fill="none" xmlns="http://www.w3.org/2000/svg">
<path d="M16.0007 2.95051C15.6331 2.76578 15.2237 2.6665 14.8031 2.6665H9.33398C7.12485 2.6665 5.33398 4.45736 5.33398 6.6665V25.3332C5.33398 27.5423 7.12485 29.3332 9.33398 29.3332H22.6673C24.8765 29.3332 26.6673 27.5423 26.6673 25.3332V15.6804C26.6673 15.3297 26.5982 14.9856 26.4671 14.6665M16.0007 2.95051C16.2989 3.10039 16.5696 3.30653 16.7962 3.56153L25.9937 13.9087C26.1947 14.1348 26.3539 14.3913 26.4671 14.6665M16.0007 2.95051V10.6665C16.0007 12.8756 17.7915 14.6665 20.0007 14.6665H26.4671" stroke="white" stroke-width="1.5"/>
</svg>
