<svg width="48" height="48" viewBox="0 0 48 48" fill="none" xmlns="http://www.w3.org/2000/svg">
<rect x="4" y="4" width="40" height="40" rx="20" stroke="#EFF8FF" stroke-width="8"/>
<path d="M24.6299 15.417C25.0986 15.417 25.557 15.5186 25.9756 15.709C26.3265 15.8687 26.6498 16.0913 26.9277 16.3691L30.4639 19.9043C30.7417 20.1821 30.9634 20.5056 31.123 20.8564C31.3135 21.275 31.415 21.7334 31.415 22.2021V30.334C31.4147 32.1286 29.9597 33.584 28.165 33.584H19.832C18.0375 33.5838 16.5824 32.1285 16.582 30.334V18.667C16.582 16.8722 18.0373 15.4172 19.832 15.417H24.6299ZM19.832 16.917C18.8657 16.9172 18.082 17.7006 18.082 18.667V30.334C18.0824 31.3001 18.8659 32.0838 19.832 32.084H28.165C29.1313 32.084 29.9147 31.3002 29.915 30.334V22.2021C29.915 21.9498 29.8604 21.7029 29.7578 21.4775C29.708 21.3682 29.6459 21.2645 29.5742 21.167H26.666C26.1138 21.167 25.6662 20.7192 25.666 20.167V17.2578C25.5683 17.186 25.4641 17.1241 25.3545 17.0742C25.1291 16.9717 24.8823 16.917 24.6299 16.917H19.832ZM26.707 23.334C27.1212 23.334 27.457 23.6698 27.457 24.084V24.2969C27.9174 24.4348 28.3037 24.6928 28.5645 25.0244C28.8204 25.3501 28.7641 25.8222 28.4385 26.0781C28.1128 26.3338 27.6406 26.2777 27.3848 25.9521C27.2987 25.8426 27.0734 25.6855 26.707 25.6855C26.4331 25.6856 26.242 25.7745 26.1309 25.8672C26.0144 25.9646 25.999 26.0494 25.999 26.0723C25.9991 26.2002 26.0207 26.2651 26.0332 26.292C26.0434 26.3137 26.0549 26.3285 26.0781 26.3447C26.146 26.3918 26.3251 26.4589 26.707 26.459C27.1995 26.459 27.7497 26.5339 28.1924 26.8418C28.6888 27.1871 28.915 27.726 28.915 28.3447C28.9149 29.2009 28.2812 29.8621 27.457 30.1162V30.334C27.4567 30.7479 27.121 31.084 26.707 31.084C26.2932 31.0838 25.9574 30.7478 25.957 30.334V30.1201C25.4967 29.9821 25.1103 29.7242 24.8496 29.3926C24.5937 29.067 24.6502 28.5949 24.9756 28.3389C25.3012 28.083 25.7734 28.1402 26.0293 28.4658C26.1156 28.5753 26.3413 28.7314 26.707 28.7314C26.9806 28.7314 27.172 28.6433 27.2832 28.5508C27.3995 28.4537 27.4149 28.3681 27.415 28.3447C27.415 28.2167 27.3934 28.1519 27.3809 28.125C27.3707 28.1033 27.3592 28.0894 27.3359 28.0732C27.2682 28.0261 27.0894 27.959 26.707 27.959C26.2148 27.959 25.6642 27.8839 25.2217 27.5762C24.7253 27.2308 24.4991 26.691 24.499 26.0723C24.499 25.216 25.1328 24.554 25.957 24.2998V24.084C25.957 23.6699 26.293 23.3342 26.707 23.334ZM23.999 22.084C24.4131 22.0842 24.749 22.4199 24.749 22.834C24.7487 23.2478 24.4129 23.5838 23.999 23.584H19.832C19.4182 23.5838 19.0824 23.2478 19.082 22.834C19.082 22.4199 19.418 22.0842 19.832 22.084H23.999ZM23.165 18.75C23.5791 18.75 23.9149 19.0859 23.915 19.5C23.9149 19.9141 23.5791 20.25 23.165 20.25H19.832C19.4181 20.2498 19.0822 19.914 19.082 19.5C19.0822 19.086 19.4181 18.7502 19.832 18.75H23.165Z" fill="#2F80ED"/>
</svg>
